<svg width="546" height="613" viewBox="0 0 546 613" fill="none" xmlns="http://www.w3.org/2000/svg">
<path d="M264.879 372.044V594.29" stroke="#FFB000" stroke-width="6" stroke-miterlimit="10"/>
<path d="M363.441 372.044V594.29" stroke="#FFB000" stroke-width="6" stroke-miterlimit="10"/>
<path d="M263.926 558.562H362.233" stroke="#FFB000" stroke-width="6" stroke-miterlimit="10"/>
<path d="M379.101 342.257H248.265C243.871 342.257 240.308 345.807 240.308 350.185V364.117C240.308 368.495 243.871 372.044 248.265 372.044H379.101C383.495 372.044 387.058 368.495 387.058 364.117V350.185C387.058 345.807 383.495 342.257 379.101 342.257Z" fill="white" stroke="#6562CF" stroke-width="6" stroke-miterlimit="10"/>
<ellipse cx="298" cy="592" rx="248" ry="21" fill="#D2D7FF"/>
<path d="M361.036 127.681C369.146 125.414 380.361 100.324 368.073 86.7357C355.785 73.1478 329.748 72.7373 307.644 76.0353C287.213 79.0851 260.376 90.8928 270.604 116.36C285.148 152.571 361.036 127.681 361.036 127.681Z" fill="#EAEDFF"/>
<path d="M348.81 110.595C356.475 108.981 369.644 96.2765 358.07 86.607C346.496 76.9375 328.671 75.9973 309.685 79.2284C290.7 82.4595 271.025 89.1461 280.056 107.478C289.086 125.81 348.81 110.595 348.81 110.595Z" fill="#C8D1FF"/>
<path d="M394.047 592.081C389.089 595.121 358.765 594.944 353.04 592.081C347.315 589.217 348.657 579.538 347.703 573.076C346.75 566.613 333.207 554.462 332.445 550.276C331.684 546.091 346.367 536.975 348.915 533.262C346.817 539.428 367.824 540.779 369.515 536.784C368.691 551.417 379.484 574.679 388.337 576.779C393.909 578.106 399.006 589.04 394.047 592.081Z" fill="#DBDAFF"/>
<path d="M374.037 520.781L369.505 536.784C367.823 540.779 346.817 539.428 348.905 533.262C350.994 527.095 350.204 516.381 350.204 516.381L374.037 520.781Z" fill="#C36F0B"/>
<path d="M332.45 550.296C333.216 554.476 346.755 566.637 347.713 573.1C348.671 579.562 347.329 589.25 353.049 592.1C358.769 594.949 389.099 595.14 394.057 592.1" stroke="#6562CF" stroke-width="7" stroke-miterlimit="10" stroke-linecap="round"/>
<path d="M370.684 576.76C370.684 576.76 380.744 572.283 390.756 575.806" stroke="white" stroke-width="6" stroke-miterlimit="10" stroke-linecap="round"/>
<path d="M255.863 592.081C260.821 595.121 287.792 594.944 293.517 592.081C299.242 589.217 302.691 579.538 303.645 573.076C304.598 566.613 313.829 552.076 314.591 547.89C315.353 543.704 300.67 534.588 298.121 530.875C300.219 537.042 279.692 540.779 278.001 536.784C278.825 551.417 270.422 574.679 261.574 576.779C255.997 578.106 250.905 589.04 255.863 592.081Z" fill="#DBDAFF"/>
<path d="M267.729 519.826L278.01 536.784C279.691 540.779 300.219 537.042 298.13 530.875C296.042 524.709 295.395 514.949 295.395 514.949L267.729 519.826Z" fill="#C36F0B"/>
<path d="M314.591 547.909C313.829 552.09 304.598 566.637 303.644 573.1C302.691 579.562 299.237 589.25 293.512 592.1C287.788 594.949 260.821 595.14 255.858 592.1" stroke="#6562CF" stroke-width="7" stroke-miterlimit="10" stroke-linecap="round"/>
<path d="M279.227 576.76C279.227 576.76 269.191 572.283 259.154 575.806" stroke="white" stroke-width="6" stroke-miterlimit="10" stroke-linecap="round"/>
<path d="M264.975 277.926C264.975 277.926 165.206 326.608 165.206 356.552C165.206 409.968 254.44 522.642 269.765 521.163C285.09 519.683 300.186 516.452 299.596 509.99C299.007 503.528 266.915 402.203 241.975 372.206C241.975 372.206 251.077 357.931 307.956 358.556C335.368 358.857 359.268 360.714 359.857 361.597C360.446 362.48 330.055 421.571 345.562 512.939C346.918 520.9 380.337 524.241 383.575 519.836C386.814 515.431 438.686 360.279 433.68 347.932C428.674 335.585 376.672 291.366 351.311 277.912C333.044 268.228 264.975 277.926 264.975 277.926Z" fill="#2A3F80"/>
<path d="M236.485 123.553C223.833 130.473 204.925 192.533 204.925 192.533C204.925 192.533 159.366 136.821 157.258 136.296C155.151 135.771 142.911 152.046 142.911 152.046C142.911 152.046 166.696 257.847 203.799 260.2C219.373 261.188 232.542 252.187 243.355 239.033C248.145 254.95 252.62 268.075 252.62 268.075C254.536 274.757 218.779 293.156 226.937 298.21C226.937 298.21 254.776 289.19 303.898 301.809C362.631 316.91 391.025 305.455 385.472 301.064C379.92 296.673 371.201 282.398 368.188 272.848L373.606 221.455C373.606 221.455 392.567 269.402 421.229 269.402C455.42 269.402 486.669 165.266 486.669 165.266C474.515 164.922 464.445 156.274 464.445 156.274C451.597 165.266 424.856 196.766 424.856 196.766C424.856 196.766 408.189 146.571 400.203 135.155C392.217 123.739 366.19 114.742 348.81 110.595L280.055 107.478C275.442 106.6 247.25 116.226 236.485 123.553Z" fill="#E1E6FF"/>
<path d="M424.856 194.666C416.161 204.627 408.304 222.348 408.304 222.348" stroke="#C8D1FF" stroke-width="6" stroke-miterlimit="10"/>
<path d="M370.238 118.159C336.857 115.348 303.342 136.267 303.342 136.267C303.342 136.267 273.88 129.69 267.988 110.151" stroke="#C8D1FF" stroke-width="6" stroke-miterlimit="10"/>
<path d="M253.578 268.075C253.578 268.075 235.153 215.346 232.581 193.11" stroke="#C8D1FF" stroke-width="6" stroke-miterlimit="10" stroke-linecap="round"/>
<path d="M485.705 127.275C485.26 130.115 482.16 134.52 485.226 134.487C486.807 134.487 498.238 132.63 499.636 136.821C500.228 138.812 500.122 140.945 499.335 142.868C501.84 146.595 499.924 149.64 499.924 149.64C501.438 151.96 501.84 154.962 500.786 156.284C500.786 156.284 503.435 162.369 500.906 163.782C493.069 168.173 480.57 169.084 474.515 167.524C470.265 166.431 465.168 163.815 463.865 154.804C463.329 151.115 467.017 141.441 469.834 137.451C470.984 135.809 475.195 129.261 476.618 127.466C478.646 124.839 480.028 121.773 480.651 118.517C480.651 118.517 486.951 119.343 485.705 127.275Z" fill="#DB8724"/>
<path d="M495.953 136.262C496.231 138.171 484.556 138.572 482.539 139.011C479.665 139.632 480.038 145.746 483.765 145.149C488.837 144.918 493.873 144.194 498.803 142.987" stroke="#CB6E00" stroke-width="4" stroke-miterlimit="10" stroke-linecap="round"/>
<path d="M499.162 149.702C486.812 152.184 483.516 151.955 483.516 151.955C481.715 152.308 479.396 145.965 483.765 145.149" stroke="#CB6E00" stroke-width="4" stroke-miterlimit="10" stroke-linecap="round"/>
<path d="M499.469 156.069C487.847 158.613 483.823 158.322 483.823 158.322C482.103 158.527 479.952 152.494 483.464 152.079" stroke="#CB6E00" stroke-width="4" stroke-miterlimit="10" stroke-linecap="round"/>
<path d="M487.075 158.221C487.075 158.221 482.922 157.835 482.984 160.412C483.099 164.994 485.327 165.485 495.842 163.562" stroke="#CB6E00" stroke-width="4" stroke-miterlimit="10" stroke-linecap="round"/>
<path d="M140.63 113.191C140.726 116.055 143.241 120.761 140.228 120.35C138.666 120.14 127.624 116.947 125.736 120.904C124.909 122.795 124.753 124.912 125.296 126.903C122.373 130.273 123.887 133.509 123.887 133.509C122.115 135.613 121.353 138.525 122.23 139.956C122.23 139.956 118.876 145.631 121.195 147.33C128.381 152.609 140.597 155.019 146.757 154.213C151.069 153.649 156.42 151.688 158.806 142.963C159.764 139.393 157.325 129.433 155.04 125.137C154.106 123.376 150.753 116.413 149.565 114.47C147.893 111.633 146.909 108.446 146.69 105.163C146.69 105.163 140.372 105.221 140.63 113.191Z" fill="#C36F0B"/>
<path d="M126.211 147.741C136.343 150.91 138.599 150.69 139.274 146.19C139.485 144.758 138.264 144.104 137.157 143.803C137.668 143.903 138.185 143.975 138.704 144.018C140.247 144.395 142.858 139.16 140.544 137.713C141.502 137.236 142.518 133.814 142.513 130.774C144.3 129.543 144.429 125.891 142.35 125.161C140.391 124.479 128.936 122.66 129.415 120.818L126.211 147.741Z" fill="#C36F0B"/>
<path d="M126.393 127.099C130.927 128.842 135.612 130.165 140.391 131.051C143.988 132.086 145.105 126.106 142.35 125.147C140.391 124.464 131.226 121.491 129.415 120.808" stroke="#B65A18" stroke-width="3" stroke-miterlimit="10" stroke-linecap="round"/>
<path d="M125.224 133.676C137.095 137.613 139.806 137.79 139.806 137.79C141.536 138.353 144.597 132.387 140.391 131.051" stroke="#B65A18" stroke-width="3" stroke-miterlimit="10" stroke-linecap="round"/>
<path d="M123.58 139.89C134.723 143.808 138.728 144.004 138.728 144.004C140.4 144.419 142.733 138.162 138.632 137.623" stroke="#B65A18" stroke-width="3" stroke-miterlimit="10" stroke-linecap="round"/>
<path d="M135.504 143.531C135.504 143.531 139.648 143.655 139.274 146.19C138.599 150.69 136.347 150.905 126.215 147.741" stroke="#B65A18" stroke-width="3" stroke-miterlimit="10" stroke-linecap="round"/>
<path d="M334.227 65.9651C334.227 65.9651 326.931 98.4864 348.81 110.595C348.81 110.595 328.689 114.055 302.974 135.155C302.974 135.155 283.179 118.551 280.055 107.473C280.055 107.473 300.176 100.558 298.111 65.9508L334.227 65.9651Z" fill="#DB8724"/>
<path d="M334.227 65.9639H298.111C300.195 100.561 280.055 107.487 280.055 107.487C280.055 107.487 320.215 107.487 331.573 71.8153L334.227 65.9639Z" fill="#CB6E00"/>
<path d="M335.607 65.6452C335.607 65.6452 324.881 86.4781 299.252 86.4876C276.391 86.4876 272.903 19.6362 306.95 18.715C339.392 17.8368 335.214 56.0806 335.214 56.0806C335.214 56.0806 341.054 52.6968 343.176 56.219C345.299 59.7413 335.607 65.6452 335.607 65.6452Z" fill="#DB8724"/>
<path d="M320.588 21.2111C320.588 21.2111 320.22 32.785 304.138 32.6084C290.173 32.4556 282.518 40.3306 281.77 46.0006" stroke="#3F4D79" stroke-width="3" stroke-miterlimit="10" stroke-linecap="round"/>
<path d="M364.686 44.0677C364.686 56.6773 349.409 67.5781 332.493 74.9759C331.492 75.4149 329.873 75.5152 327.822 75.3529C330.913 72.5442 333.54 69.2682 335.607 65.6452C335.607 65.6452 345.241 59.6602 343.157 56.2191C341.073 52.778 335.195 56.0759 335.195 56.0759C335.195 56.0759 338.122 29.4203 320.21 21.1396C320.071 21.3973 315.42 29.5682 301.671 30.0026C288.592 30.4082 285.023 35.3766 283.529 40.5693C283.481 40.7507 283.433 40.9273 283.39 41.1087C281.704 48.0157 281.302 55.1717 282.202 62.2232L282.125 62.1945C280.855 60.6577 263.509 38.7557 268.036 27.0101C272.956 14.243 304.401 -3.76442 329.576 0.693297C343.636 3.18943 364.681 37.4384 364.686 44.0677Z" fill="#3F4D79"/>
<path d="M250.665 224.796H57.7245C55.077 224.793 52.4973 223.962 50.3488 222.421C48.2002 220.879 46.5911 218.706 45.748 216.205L4.85558 94.8971C4.40638 93.564 4.28201 92.1436 4.49273 90.7532C4.70346 89.3628 5.24323 88.0423 6.06746 86.9008C6.89169 85.7593 7.97672 84.8296 9.2329 84.1884C10.4891 83.5473 11.8804 83.2131 13.2918 83.2135H206.233C208.88 83.2177 211.459 84.0489 213.608 85.5899C215.756 87.131 217.365 89.3045 218.209 91.8044L259.078 213.084C259.532 214.417 259.661 215.838 259.454 217.23C259.247 218.623 258.711 219.946 257.888 221.091C257.066 222.235 255.982 223.169 254.726 223.813C253.47 224.457 252.078 224.794 250.665 224.796Z" fill="#C7BFFF"/>
<path d="M246.263 229.526H53.3171C50.6696 229.522 48.0899 228.692 45.9414 227.15C43.7928 225.609 42.1837 223.435 41.3406 220.935L0.462555 99.6507C0.0134855 98.318 -0.110949 96.898 0.0995268 95.508C0.310002 94.118 0.84935 92.7977 1.67303 91.6563C2.49672 90.5149 3.58111 89.5851 4.83668 88.9436C6.09224 88.3022 7.48295 87.9674 8.89399 87.9671H201.83C204.478 87.9706 207.057 88.8015 209.206 90.3426C211.354 91.8838 212.964 94.0577 213.807 96.558L254.68 217.842C255.129 219.174 255.253 220.593 255.043 221.981C254.834 223.37 254.296 224.69 253.474 225.831C252.652 226.972 251.569 227.902 250.315 228.544C249.062 229.187 247.673 229.523 246.263 229.526Z" fill="white"/>
<path d="M250.665 224.405H57.7245C55.0768 224.402 52.4968 223.571 50.3481 222.03C48.1994 220.489 46.5905 218.315 45.748 215.814L4.85558 94.5296C4.40638 93.1965 4.28201 91.7761 4.49273 90.3857C4.70346 88.9953 5.24323 87.6747 6.06746 86.5332C6.89169 85.3917 7.97672 84.462 9.2329 83.8209C10.4891 83.1797 11.8804 82.8455 13.2918 82.8459H206.233C208.88 82.8502 211.459 83.6813 213.608 85.2224C215.756 86.7635 217.365 88.9369 218.209 91.4368L259.097 212.721C259.546 214.054 259.67 215.474 259.46 216.864C259.249 218.254 258.71 219.574 257.886 220.716C257.063 221.857 255.978 222.787 254.723 223.428C253.467 224.07 252.076 224.404 250.665 224.405V224.405Z" stroke="#6562CF" stroke-width="6" stroke-miterlimit="10"/>
<path d="M167.213 186.39L181.892 222.782H150.168C150.168 222.782 156.334 194.313 167.213 186.39Z" fill="#E2E2FF"/>
<path d="M188.311 268.423C125.847 268.423 152.113 201.83 164.535 187.998H116.462C104.045 201.839 70.4387 272.079 132.898 272.079H188.311V268.423Z" fill="white" stroke="#6562CF" stroke-width="6" stroke-miterlimit="10"/>
<path d="M135.286 156.258C137.978 152.01 135.805 145.827 130.433 142.449C125.061 139.071 118.524 139.777 115.833 144.025C113.141 148.274 115.314 154.456 120.685 157.834C126.057 161.212 132.594 160.507 135.286 156.258Z" fill="#E2E2FF"/>
<path d="M138.354 153.679C141.046 149.431 138.873 143.248 133.501 139.87C128.13 136.492 121.593 137.198 118.901 141.446C116.209 145.695 118.382 151.877 123.754 155.255C129.126 158.633 135.663 157.928 138.354 153.679Z" stroke="#6562CF" stroke-width="6" stroke-miterlimit="10"/>
<path d="M44.8952 272.079H330.975C335.181 272.079 338.592 275.248 338.592 279.162C338.592 283.071 335.181 286.24 330.975 286.24H44.8952V272.079Z" fill="white"/>
<path d="M44.8952 272.079H330.975C335.181 272.079 338.592 275.248 338.592 279.162C338.592 283.071 335.181 286.24 330.975 286.24H44.8952" stroke="#6562CF" stroke-width="6" stroke-miterlimit="10"/>
</svg>
