<svg width="807" height="236" viewBox="0 0 807 236" fill="none" xmlns="http://www.w3.org/2000/svg">
<rect width="807" height="236" fill="#02031B"/>
<path d="M74.42 81V78.552H78.596V66.924H74.636V64.44H81.692V78.552H85.508V81H74.42ZM79.964 61.236C79.388 61.236 78.896 61.032 78.488 60.624C78.08 60.216 77.876 59.736 77.876 59.184C77.876 58.608 78.068 58.128 78.452 57.744C78.86 57.336 79.364 57.132 79.964 57.132C80.516 57.132 80.996 57.336 81.404 57.744C81.836 58.152 82.052 58.632 82.052 59.184C82.052 59.736 81.836 60.216 81.404 60.624C80.996 61.032 80.516 61.236 79.964 61.236ZM94.544 66.888H90.98V64.44H94.544V63.216C94.544 61.728 94.82 60.516 95.372 59.58C95.948 58.62 96.716 57.912 97.676 57.456C98.636 57 99.704 56.772 100.88 56.772C101.96 56.772 102.956 56.964 103.868 57.348C104.804 57.732 105.584 58.296 106.208 59.04L104.768 61.236L104.588 61.524L104.336 61.38C104.288 61.188 104.228 60.996 104.156 60.804C104.084 60.612 103.916 60.384 103.652 60.12C102.932 59.52 102.056 59.22 101.024 59.22C99.992 59.22 99.152 59.532 98.504 60.156C97.88 60.756 97.568 61.764 97.568 63.18V64.44H102.824V66.888H97.568V81H94.544V66.888ZM223.532 70.128C222.908 70.128 222.368 69.9 221.912 69.444C221.456 68.988 221.228 68.46 221.228 67.86C221.228 67.236 221.456 66.696 221.912 66.24C222.368 65.784 222.908 65.556 223.532 65.556C224.132 65.556 224.672 65.784 225.152 66.24C225.632 66.672 225.872 67.212 225.872 67.86C225.872 68.46 225.644 68.988 225.188 69.444C224.732 69.9 224.18 70.128 223.532 70.128ZM223.532 81.396C222.884 81.396 222.332 81.18 221.876 80.748C221.444 80.292 221.228 79.752 221.228 79.128C221.228 78.504 221.456 77.964 221.912 77.508C222.368 77.052 222.908 76.824 223.532 76.824C224.132 76.824 224.672 77.052 225.152 77.508C225.632 77.964 225.872 78.504 225.872 79.128C225.872 79.752 225.644 80.292 225.188 80.748C224.732 81.18 224.18 81.396 223.532 81.396ZM163.016 125.012V102.44H166.112V105.392C166.544 104.24 167.192 103.4 168.056 102.872C168.92 102.344 169.904 102.08 171.008 102.08C172.232 102.08 173.348 102.404 174.356 103.052C175.388 103.676 176.216 104.624 176.84 105.896C177.488 107.144 177.812 108.728 177.812 110.648C177.812 112.592 177.476 114.224 176.804 115.544C176.156 116.84 175.304 117.812 174.248 118.46C173.216 119.108 172.112 119.432 170.936 119.432C169.976 119.432 169.076 119.228 168.236 118.82C167.396 118.412 166.712 117.836 166.184 117.092V125.012H163.016ZM170.288 116.84C171.032 116.84 171.728 116.66 172.376 116.3C173.048 115.916 173.588 115.28 173.996 114.392C174.428 113.48 174.644 112.232 174.644 110.648C174.644 108.8 174.284 107.348 173.564 106.292C172.868 105.236 171.884 104.684 170.612 104.636C169.34 104.588 168.272 105.068 167.408 106.076C166.568 107.084 166.148 108.788 166.148 111.188C166.196 113.084 166.58 114.5 167.3 115.436C168.02 116.372 169.016 116.84 170.288 116.84ZM182.924 102.44H186.128L186.092 105.392C186.548 104.312 187.244 103.484 188.18 102.908C189.116 102.332 190.112 102.044 191.168 102.044C192.944 102.044 194.42 102.656 195.596 103.88L194.264 106.364L194.12 106.688L193.868 106.544C193.796 106.352 193.712 106.172 193.616 106.004C193.544 105.812 193.352 105.596 193.04 105.356C192.368 104.9 191.636 104.672 190.844 104.672C190.052 104.672 189.284 104.864 188.54 105.248C187.82 105.632 187.22 106.244 186.74 107.084C186.284 107.9 186.056 108.956 186.056 110.252V119.036H182.924V102.44ZM200.42 119V116.552H204.596V104.924H200.636V102.44H207.692V116.552H211.508V119H200.42ZM205.964 99.236C205.388 99.236 204.896 99.032 204.488 98.624C204.08 98.216 203.876 97.736 203.876 97.184C203.876 96.608 204.068 96.128 204.452 95.744C204.86 95.336 205.364 95.132 205.964 95.132C206.516 95.132 206.996 95.336 207.404 95.744C207.836 96.152 208.052 96.632 208.052 97.184C208.052 97.736 207.836 98.216 207.404 98.624C206.996 99.032 206.516 99.236 205.964 99.236ZM217.376 119V102.44H220.436V105.176C221.06 104.216 221.828 103.46 222.74 102.908C223.652 102.332 224.66 102.044 225.764 102.044C226.676 102.044 227.516 102.284 228.284 102.764C229.052 103.22 229.652 103.952 230.084 104.96C230.54 105.968 230.768 107.312 230.768 108.992V119H227.744V109.064C227.744 107.456 227.468 106.316 226.916 105.644C226.388 104.948 225.716 104.6 224.9 104.6C224.228 104.6 223.544 104.792 222.848 105.176C222.152 105.56 221.576 106.112 221.12 106.832C220.664 107.552 220.436 108.392 220.436 109.352V119H217.376ZM243.764 119.288C241.7 119.288 240.296 118.58 239.552 117.164C238.832 115.748 238.532 113.408 238.652 110.144L238.832 104.924H235.376V102.44H238.94L239.084 98.336L242.288 97.94L242.648 97.904L242.684 98.156C242.564 98.324 242.456 98.504 242.36 98.696C242.288 98.864 242.228 99.14 242.18 99.524L241.964 102.44H247.58V104.924H241.964L241.712 110.252C241.64 112.004 241.688 113.348 241.856 114.284C242.024 115.22 242.312 115.868 242.72 116.228C243.128 116.588 243.668 116.768 244.34 116.768C245.132 116.768 245.828 116.612 246.428 116.3C247.052 115.988 247.676 115.604 248.3 115.148L249.092 117.488C247.484 118.688 245.708 119.288 243.764 119.288Z" fill="#E23237"/>
<path d="M127.448 78.66C129.08 76.98 130.532 75.516 131.804 74.268C133.1 72.996 134.192 71.844 135.08 70.812C135.968 69.756 136.64 68.748 137.096 67.788C137.576 66.828 137.816 65.82 137.816 64.764C137.816 63.372 137.468 62.388 136.772 61.812C136.1 61.236 135.248 60.948 134.216 60.948C133.376 60.948 132.596 61.116 131.876 61.452C131.156 61.788 130.508 62.316 129.932 63.036C129.716 63.372 129.584 63.624 129.536 63.792C129.488 63.96 129.476 64.152 129.5 64.368L129.32 64.548L129.068 64.368L126.908 62.712C127.652 61.32 128.66 60.252 129.932 59.508C131.228 58.74 132.644 58.356 134.18 58.356C135.452 58.356 136.592 58.62 137.6 59.148C138.608 59.676 139.388 60.42 139.94 61.38C140.516 62.34 140.804 63.48 140.804 64.8C140.804 66.024 140.552 67.176 140.048 68.256C139.544 69.336 138.848 70.416 137.96 71.496C137.096 72.552 136.1 73.644 134.972 74.772C133.844 75.9 132.644 77.124 131.372 78.444H139.292C139.7 78.444 139.988 78.42 140.156 78.372C140.324 78.324 140.48 78.228 140.624 78.084H140.912V81H127.448V78.66ZM205.028 81V62.1L200.636 63.468L199.952 61.632L205.856 58.536H208.052V81H205.028Z" fill="white"/>
<path d="M162.404 79.452V76.32L174.572 69.48L162.476 63.36V60.408L177.848 68.508V70.38L162.404 79.452Z" fill="#00ADEF"/>
<path d="M283.22 122.78C281.132 121.844 279.332 120.584 277.82 119C276.332 117.416 275.18 115.64 274.364 113.672C273.572 111.68 273.176 109.616 273.176 107.48C273.176 105.344 273.572 103.316 274.364 101.396C275.156 99.452 276.284 97.724 277.748 96.212C279.212 94.676 280.964 93.44 283.004 92.504L283.796 95.096C281.468 96.344 279.608 98.06 278.216 100.244C276.848 102.428 276.164 104.876 276.164 107.588C276.164 109.364 276.476 111.068 277.1 112.7C277.748 114.308 278.66 115.76 279.836 117.056C281.036 118.352 282.44 119.42 284.048 120.26L283.22 122.78ZM525.788 122.78L524.96 120.26C526.592 119.42 527.996 118.352 529.172 117.056C530.348 115.76 531.248 114.308 531.872 112.7C532.52 111.068 532.844 109.364 532.844 107.588C532.844 104.876 532.148 102.428 530.756 100.244C529.388 98.06 527.54 96.344 525.212 95.096L526.004 92.504C528.044 93.44 529.796 94.676 531.26 96.212C532.724 97.724 533.852 99.452 534.644 101.396C535.436 103.316 535.832 105.344 535.832 107.48C535.832 109.616 535.424 111.68 534.608 113.672C533.816 115.64 532.664 117.416 531.152 119C529.664 120.584 527.876 121.844 525.788 122.78Z" fill="#FFD43B"/>
<path d="M311.66 95.924L313.136 97.256C312.488 97.88 311.936 98.54 311.48 99.236C311.048 99.908 310.832 100.484 310.832 100.964C310.832 101.324 310.976 101.636 311.264 101.9C311.576 102.164 311.876 102.44 312.164 102.728C312.452 103.016 312.596 103.388 312.596 103.844C312.596 104.492 312.38 105.032 311.948 105.464C311.54 105.896 310.988 106.112 310.292 106.112C309.62 106.112 309.008 105.824 308.456 105.248C307.928 104.672 307.664 103.928 307.664 103.016C307.664 101 308.996 98.636 311.66 95.924ZM319.04 95.924L320.516 97.256C319.868 97.88 319.316 98.54 318.86 99.236C318.428 99.908 318.212 100.484 318.212 100.964C318.212 101.324 318.356 101.636 318.644 101.9C318.956 102.164 319.256 102.44 319.544 102.728C319.832 103.016 319.976 103.388 319.976 103.844C319.976 104.492 319.76 105.032 319.328 105.464C318.92 105.896 318.368 106.112 317.672 106.112C317 106.112 316.388 105.824 315.836 105.248C315.308 104.672 315.044 103.928 315.044 103.016C315.044 101 316.376 98.636 319.04 95.924ZM326.42 119V116.552H330.596V104.924H326.636V102.44H333.692V116.552H337.508V119H326.42ZM331.964 99.236C331.388 99.236 330.896 99.032 330.488 98.624C330.08 98.216 329.876 97.736 329.876 97.184C329.876 96.608 330.068 96.128 330.452 95.744C330.86 95.336 331.364 95.132 331.964 95.132C332.516 95.132 332.996 95.336 333.404 95.744C333.836 96.152 334.052 96.632 334.052 97.184C334.052 97.736 333.836 98.216 333.404 98.624C332.996 99.032 332.516 99.236 331.964 99.236ZM343.376 119V102.44H346.436V105.176C347.06 104.216 347.828 103.46 348.74 102.908C349.652 102.332 350.66 102.044 351.764 102.044C352.676 102.044 353.516 102.284 354.284 102.764C355.052 103.22 355.652 103.952 356.084 104.96C356.54 105.968 356.768 107.312 356.768 108.992V119H353.744V109.064C353.744 107.456 353.468 106.316 352.916 105.644C352.388 104.948 351.716 104.6 350.9 104.6C350.228 104.6 349.544 104.792 348.848 105.176C348.152 105.56 347.576 106.112 347.12 106.832C346.664 107.552 346.436 108.392 346.436 109.352V119H343.376ZM367.316 119.36C366.164 119.36 365.06 119.048 364.004 118.424C362.972 117.776 362.12 116.804 361.448 115.508C360.8 114.188 360.476 112.544 360.476 110.576C360.476 108.608 360.812 107 361.484 105.752C362.156 104.48 363.02 103.544 364.076 102.944C365.132 102.32 366.248 102.008 367.424 102.008C368.456 102.008 369.368 102.236 370.16 102.692C370.952 103.148 371.552 103.772 371.96 104.564V94.988H375.236V95.276C375.092 95.42 374.996 95.576 374.948 95.744C374.924 95.912 374.912 96.2 374.912 96.608L374.948 116.552C374.948 116.96 374.96 117.368 374.984 117.776C375.032 118.184 375.14 118.592 375.308 119H372.284C372.092 118.592 371.984 118.208 371.96 117.848C371.936 117.488 371.924 117.104 371.924 116.696C371.42 117.536 370.772 118.196 369.98 118.676C369.212 119.132 368.324 119.36 367.316 119.36ZM367.82 116.768C369.26 116.768 370.28 116.204 370.88 115.076C371.504 113.924 371.816 112.448 371.816 110.648C371.816 108.8 371.48 107.312 370.808 106.184C370.136 105.056 369.08 104.492 367.64 104.492C366.296 104.492 365.264 105.02 364.544 106.076C363.848 107.132 363.5 108.536 363.5 110.288C363.5 112.256 363.884 113.828 364.652 115.004C365.42 116.18 366.476 116.768 367.82 116.768ZM386.792 119.36C384.368 119.36 382.4 118.628 380.888 117.164C379.4 115.676 378.656 113.552 378.656 110.792C378.656 108.944 378.992 107.372 379.664 106.076C380.36 104.756 381.284 103.76 382.436 103.088C383.612 102.392 384.908 102.044 386.324 102.044C387.572 102.044 388.712 102.332 389.744 102.908C390.8 103.484 391.628 104.36 392.228 105.536C392.852 106.712 393.164 108.188 393.164 109.964C393.164 110.18 393.152 110.42 393.128 110.684C393.128 110.924 393.116 111.14 393.092 111.332H381.608C381.704 113.276 382.268 114.692 383.3 115.58C384.332 116.468 385.532 116.912 386.9 116.912C387.716 116.912 388.472 116.78 389.168 116.516C389.864 116.228 390.488 115.784 391.04 115.184L392.696 116.768C391.256 118.496 389.288 119.36 386.792 119.36ZM381.716 108.992H390.104C390.104 107.576 389.744 106.46 389.024 105.644C388.304 104.828 387.344 104.42 386.144 104.42C385.064 104.42 384.104 104.792 383.264 105.536C382.424 106.256 381.908 107.408 381.716 108.992ZM397.376 119V102.44H400.436V105.176C401.06 104.216 401.828 103.46 402.74 102.908C403.652 102.332 404.66 102.044 405.764 102.044C406.676 102.044 407.516 102.284 408.284 102.764C409.052 103.22 409.652 103.952 410.084 104.96C410.54 105.968 410.768 107.312 410.768 108.992V119H407.744V109.064C407.744 107.456 407.468 106.316 406.916 105.644C406.388 104.948 405.716 104.6 404.9 104.6C404.228 104.6 403.544 104.792 402.848 105.176C402.152 105.56 401.576 106.112 401.12 106.832C400.664 107.552 400.436 108.392 400.436 109.352V119H397.376ZM423.764 119.288C421.7 119.288 420.296 118.58 419.552 117.164C418.832 115.748 418.532 113.408 418.652 110.144L418.832 104.924H415.376V102.44H418.94L419.084 98.336L422.288 97.94L422.648 97.904L422.684 98.156C422.564 98.324 422.456 98.504 422.36 98.696C422.288 98.864 422.228 99.14 422.18 99.524L421.964 102.44H427.58V104.924H421.964L421.712 110.252C421.64 112.004 421.688 113.348 421.856 114.284C422.024 115.22 422.312 115.868 422.72 116.228C423.128 116.588 423.668 116.768 424.34 116.768C425.132 116.768 425.828 116.612 426.428 116.3C427.052 115.988 427.676 115.604 428.3 115.148L429.092 117.488C427.484 118.688 425.708 119.288 423.764 119.288ZM438.452 119.396C436.58 119.396 435.14 118.976 434.132 118.136C433.124 117.272 432.62 116.168 432.62 114.824C432.62 113.648 432.98 112.616 433.7 111.728C434.444 110.84 435.464 110.156 436.76 109.676C438.056 109.196 439.556 108.956 441.26 108.956C441.668 108.956 442.124 108.968 442.628 108.992C443.132 108.992 443.66 109.016 444.212 109.064C444.068 107.336 443.6 106.16 442.808 105.536C442.04 104.888 440.96 104.564 439.568 104.564C438.776 104.564 438.008 104.708 437.264 104.996C436.544 105.284 435.86 105.74 435.212 106.364L433.628 104.456C434.468 103.64 435.404 103.04 436.436 102.656C437.492 102.272 438.596 102.08 439.748 102.08C441.188 102.08 442.46 102.32 443.564 102.8C444.668 103.256 445.532 104.06 446.156 105.212C446.78 106.364 447.092 107.948 447.092 109.964V119H443.816V116.732C443.192 117.812 442.376 118.532 441.368 118.892C440.384 119.228 439.412 119.396 438.452 119.396ZM435.68 114.536C435.68 115.496 435.98 116.156 436.58 116.516C437.204 116.852 437.972 117.02 438.884 117.02C440.492 117.02 441.752 116.54 442.664 115.58C443.6 114.62 444.128 113.204 444.248 111.332C443.264 111.236 442.304 111.188 441.368 111.188C439.568 111.188 438.164 111.464 437.156 112.016C436.172 112.568 435.68 113.408 435.68 114.536ZM458.144 119.36C456.704 119.36 455.372 119.156 454.148 118.748C452.948 118.316 451.868 117.656 450.908 116.768L452.456 114.032L452.672 113.708L452.888 113.852C452.936 114.044 452.996 114.248 453.068 114.464C453.14 114.656 453.308 114.896 453.572 115.184C454.124 115.688 454.76 116.096 455.48 116.408C456.2 116.72 457.112 116.876 458.216 116.876C459.416 116.876 460.352 116.66 461.024 116.228C461.696 115.796 462.032 115.22 462.032 114.5C462.032 113.852 461.72 113.324 461.096 112.916C460.496 112.484 459.452 112.04 457.964 111.584C456.092 111.056 454.604 110.384 453.5 109.568C452.396 108.752 451.844 107.708 451.844 106.436C451.844 105.14 452.384 104.084 453.464 103.268C454.544 102.452 456.08 102.044 458.072 102.044C459.56 102.044 460.82 102.26 461.852 102.692C462.908 103.124 463.856 103.772 464.696 104.636L463.04 106.76L462.788 107.048L462.608 106.868C462.584 106.676 462.524 106.496 462.428 106.328C462.356 106.136 462.176 105.908 461.888 105.644C461.36 105.236 460.76 104.924 460.088 104.708C459.44 104.492 458.792 104.384 458.144 104.384C457.232 104.384 456.44 104.552 455.768 104.888C455.12 105.2 454.796 105.668 454.796 106.292C454.796 106.82 455.108 107.312 455.732 107.768C456.356 108.224 457.544 108.692 459.296 109.172C461.336 109.772 462.788 110.456 463.652 111.224C464.54 111.992 464.984 112.976 464.984 114.176C464.984 115.112 464.732 115.976 464.228 116.768C463.724 117.56 462.956 118.196 461.924 118.676C460.916 119.132 459.656 119.36 458.144 119.36ZM470.42 119V116.552H474.596V104.924H470.636V102.44H477.692V116.552H481.508V119H470.42ZM475.964 99.236C475.388 99.236 474.896 99.032 474.488 98.624C474.08 98.216 473.876 97.736 473.876 97.184C473.876 96.608 474.068 96.128 474.452 95.744C474.86 95.336 475.364 95.132 475.964 95.132C476.516 95.132 476.996 95.336 477.404 95.744C477.836 96.152 478.052 96.632 478.052 97.184C478.052 97.736 477.836 98.216 477.404 98.624C476.996 99.032 476.516 99.236 475.964 99.236ZM496.628 106.112L495.152 104.78C495.8 104.156 496.34 103.508 496.772 102.836C497.228 102.14 497.456 101.552 497.456 101.072C497.456 100.712 497.3 100.4 496.988 100.136C496.7 99.872 496.412 99.596 496.124 99.308C495.836 99.02 495.692 98.648 495.692 98.192C495.692 97.544 495.896 97.004 496.304 96.572C496.736 96.14 497.3 95.924 497.996 95.924C498.668 95.924 499.268 96.212 499.796 96.788C500.348 97.364 500.624 98.108 500.624 99.02C500.624 101.036 499.292 103.4 496.628 106.112ZM489.248 106.112L487.772 104.78C488.42 104.156 488.96 103.508 489.392 102.836C489.848 102.14 490.076 101.552 490.076 101.072C490.076 100.712 489.92 100.4 489.608 100.136C489.32 99.872 489.032 99.596 488.744 99.308C488.456 99.02 488.312 98.648 488.312 98.192C488.312 97.544 488.516 97.004 488.924 96.572C489.356 96.14 489.92 95.924 490.616 95.924C491.288 95.924 491.888 96.212 492.416 96.788C492.968 97.364 493.244 98.108 493.244 99.02C493.244 101.036 491.912 103.4 489.248 106.112Z" fill="#3EFF68"/>
<path d="M75 129V145H161V129" stroke="#FF0CD8" stroke-width="2" stroke-linecap="round" stroke-linejoin="round"/>
<path d="M118 149V165" stroke="#FF0CD8" stroke-width="2" stroke-linecap="round" stroke-linejoin="round"/>
<path d="M78.836 182C78.716 182 78.614 181.958 78.53 181.874C78.446 181.79 78.404 181.688 78.404 181.568V169.832C78.404 169.7 78.446 169.598 78.53 169.526C78.614 169.442 78.716 169.4 78.836 169.4H80.528C80.66 169.4 80.762 169.442 80.834 169.526C80.918 169.598 80.96 169.7 80.96 169.832V181.568C80.96 181.688 80.918 181.79 80.834 181.874C80.762 181.958 80.66 182 80.528 182H78.836ZM83.9989 182C83.8789 182 83.7769 181.958 83.6929 181.874C83.6089 181.79 83.5669 181.688 83.5669 181.568V173.072C83.5669 172.952 83.6089 172.85 83.6929 172.766C83.7769 172.682 83.8789 172.64 83.9989 172.64H85.4749C85.5949 172.64 85.6969 172.682 85.7809 172.766C85.8649 172.85 85.9069 172.952 85.9069 173.072V173.81C86.6149 172.91 87.6169 172.46 88.9129 172.46C90.0169 172.46 90.8929 172.826 91.5409 173.558C92.1889 174.278 92.5129 175.262 92.5129 176.51V181.568C92.5129 181.688 92.4709 181.79 92.3869 181.874C92.3149 181.958 92.2129 182 92.0809 182H90.4969C90.3769 182 90.2749 181.958 90.1909 181.874C90.1069 181.79 90.0649 181.688 90.0649 181.568V176.618C90.0649 175.91 89.8909 175.364 89.5429 174.98C89.2069 174.584 88.7149 174.386 88.0669 174.386C87.4309 174.386 86.9269 174.584 86.5549 174.98C86.1949 175.376 86.0149 175.922 86.0149 176.618V181.568C86.0149 181.688 85.9729 181.79 85.8889 181.874C85.8169 181.958 85.7149 182 85.5829 182H83.9989ZM98.2733 182.18C97.0613 182.18 96.1313 181.79 95.4833 181.01C94.8353 180.23 94.4873 179.192 94.4393 177.896L94.4213 177.302L94.4393 176.726C94.4753 175.466 94.8173 174.44 95.4653 173.648C96.1253 172.856 97.0613 172.46 98.2733 172.46C99.4373 172.46 100.361 172.856 101.045 173.648V169.652C101.045 169.52 101.087 169.418 101.171 169.346C101.255 169.262 101.357 169.22 101.477 169.22H103.007C103.139 169.22 103.241 169.262 103.313 169.346C103.397 169.418 103.439 169.52 103.439 169.652V181.568C103.439 181.688 103.397 181.79 103.313 181.874C103.241 181.958 103.139 182 103.007 182H101.585C101.465 182 101.363 181.958 101.279 181.874C101.195 181.79 101.153 181.688 101.153 181.568V180.902C100.469 181.754 99.5093 182.18 98.2733 182.18ZM98.9393 180.254C99.6353 180.254 100.151 180.032 100.487 179.588C100.823 179.144 101.009 178.598 101.045 177.95C101.057 177.806 101.063 177.572 101.063 177.248C101.063 176.936 101.057 176.708 101.045 176.564C101.021 175.964 100.829 175.454 100.469 175.034C100.121 174.602 99.6113 174.386 98.9393 174.386C97.6433 174.386 96.9533 175.184 96.8693 176.78L96.8513 177.32L96.8693 177.86C96.9533 179.456 97.6433 180.254 98.9393 180.254ZM109.87 182.18C108.538 182.18 107.476 181.796 106.684 181.028C105.904 180.248 105.49 179.156 105.442 177.752L105.424 177.302L105.442 176.852C105.502 175.484 105.922 174.41 106.702 173.63C107.494 172.85 108.55 172.46 109.87 172.46C111.286 172.46 112.378 172.892 113.146 173.756C113.926 174.62 114.316 175.772 114.316 177.212V177.59C114.316 177.71 114.274 177.812 114.19 177.896C114.106 177.98 113.998 178.022 113.866 178.022H107.89V178.166C107.914 178.826 108.094 179.384 108.43 179.84C108.778 180.284 109.252 180.506 109.852 180.506C110.56 180.506 111.13 180.23 111.562 179.678C111.67 179.546 111.754 179.462 111.814 179.426C111.886 179.39 111.988 179.372 112.12 179.372H113.668C113.776 179.372 113.866 179.408 113.938 179.48C114.022 179.54 114.064 179.618 114.064 179.714C114.064 180.002 113.89 180.344 113.542 180.74C113.206 181.124 112.72 181.46 112.084 181.748C111.448 182.036 110.71 182.18 109.87 182.18ZM111.868 176.51V176.456C111.868 175.748 111.688 175.178 111.328 174.746C110.98 174.314 110.494 174.098 109.87 174.098C109.246 174.098 108.76 174.314 108.412 174.746C108.064 175.178 107.89 175.748 107.89 176.456V176.51H111.868ZM116.659 182C116.539 182 116.437 181.958 116.353 181.874C116.269 181.79 116.227 181.688 116.227 181.568V173.072C116.227 172.952 116.269 172.85 116.353 172.766C116.437 172.682 116.539 172.64 116.659 172.64H118.135C118.255 172.64 118.357 172.682 118.441 172.766C118.525 172.85 118.567 172.952 118.567 173.072V173.81C119.275 172.91 120.277 172.46 121.573 172.46C122.677 172.46 123.553 172.826 124.201 173.558C124.849 174.278 125.173 175.262 125.173 176.51V181.568C125.173 181.688 125.131 181.79 125.047 181.874C124.975 181.958 124.873 182 124.741 182H123.157C123.037 182 122.935 181.958 122.851 181.874C122.767 181.79 122.725 181.688 122.725 181.568V176.618C122.725 175.91 122.551 175.364 122.203 174.98C121.867 174.584 121.375 174.386 120.727 174.386C120.091 174.386 119.587 174.584 119.215 174.98C118.855 175.376 118.675 175.922 118.675 176.618V181.568C118.675 181.688 118.633 181.79 118.549 181.874C118.477 181.958 118.375 182 118.243 182H116.659ZM131.584 182C130.492 182 129.67 181.718 129.118 181.154C128.578 180.578 128.308 179.738 128.308 178.634V174.548H126.886C126.766 174.548 126.664 174.506 126.58 174.422C126.496 174.326 126.454 174.218 126.454 174.098V173.072C126.454 172.952 126.496 172.85 126.58 172.766C126.664 172.682 126.766 172.64 126.886 172.64H128.308V169.652C128.308 169.52 128.35 169.418 128.434 169.346C128.518 169.262 128.62 169.22 128.74 169.22H130.198C130.33 169.22 130.432 169.262 130.504 169.346C130.588 169.418 130.63 169.52 130.63 169.652V172.64H132.88C133.012 172.64 133.114 172.682 133.186 172.766C133.27 172.838 133.312 172.94 133.312 173.072V174.098C133.312 174.23 133.27 174.338 133.186 174.422C133.102 174.506 133 174.548 132.88 174.548H130.63V178.454C130.63 178.97 130.72 179.36 130.9 179.624C131.08 179.888 131.38 180.02 131.8 180.02H133.042C133.162 180.02 133.264 180.062 133.348 180.146C133.432 180.23 133.474 180.332 133.474 180.452V181.568C133.474 181.688 133.432 181.79 133.348 181.874C133.276 181.958 133.174 182 133.042 182H131.584ZM137.789 182.18C137.177 182.18 136.613 182.06 136.097 181.82C135.593 181.568 135.191 181.232 134.891 180.812C134.603 180.392 134.459 179.93 134.459 179.426C134.459 178.61 134.789 177.95 135.449 177.446C136.109 176.942 137.015 176.6 138.167 176.42L140.633 176.06V175.682C140.633 175.154 140.501 174.758 140.237 174.494C139.973 174.23 139.547 174.098 138.959 174.098C138.563 174.098 138.239 174.176 137.987 174.332C137.747 174.476 137.555 174.62 137.411 174.764C137.267 174.92 137.171 175.022 137.123 175.07C137.075 175.214 136.985 175.286 136.853 175.286H135.467C135.359 175.286 135.263 175.25 135.179 175.178C135.107 175.106 135.071 175.01 135.071 174.89C135.083 174.59 135.227 174.248 135.503 173.864C135.791 173.48 136.229 173.15 136.817 172.874C137.405 172.598 138.125 172.46 138.977 172.46C140.393 172.46 141.425 172.778 142.073 173.414C142.721 174.05 143.045 174.884 143.045 175.916V181.568C143.045 181.688 143.003 181.79 142.919 181.874C142.847 181.958 142.745 182 142.613 182H141.155C141.035 182 140.933 181.958 140.849 181.874C140.765 181.79 140.723 181.688 140.723 181.568V180.866C140.459 181.25 140.081 181.568 139.589 181.82C139.109 182.06 138.509 182.18 137.789 182.18ZM138.401 180.47C139.061 180.47 139.601 180.254 140.021 179.822C140.441 179.39 140.651 178.76 140.651 177.932V177.554L138.851 177.842C138.155 177.95 137.627 178.124 137.267 178.364C136.919 178.604 136.745 178.898 136.745 179.246C136.745 179.63 136.907 179.93 137.231 180.146C137.555 180.362 137.945 180.47 138.401 180.47ZM148.9 182.18C148 182.18 147.244 182.048 146.632 181.784C146.02 181.508 145.564 181.19 145.264 180.83C144.976 180.458 144.832 180.14 144.832 179.876C144.832 179.756 144.874 179.66 144.958 179.588C145.042 179.516 145.138 179.48 145.246 179.48H146.668C146.776 179.48 146.866 179.522 146.938 179.606C146.986 179.642 147.112 179.75 147.316 179.93C147.52 180.122 147.76 180.272 148.036 180.38C148.312 180.488 148.618 180.542 148.954 180.542C149.434 180.542 149.83 180.446 150.142 180.254C150.454 180.062 150.61 179.798 150.61 179.462C150.61 179.21 150.538 179.006 150.394 178.85C150.262 178.694 150.016 178.556 149.656 178.436C149.296 178.304 148.762 178.166 148.054 178.022C147.034 177.806 146.278 177.476 145.786 177.032C145.306 176.588 145.066 176 145.066 175.268C145.066 174.788 145.21 174.338 145.498 173.918C145.786 173.486 146.212 173.138 146.776 172.874C147.352 172.598 148.036 172.46 148.828 172.46C149.632 172.46 150.328 172.592 150.916 172.856C151.504 173.108 151.948 173.414 152.248 173.774C152.56 174.122 152.716 174.434 152.716 174.71C152.716 174.818 152.674 174.914 152.59 174.998C152.518 175.07 152.428 175.106 152.32 175.106H150.988C150.892 175.106 150.79 175.064 150.682 174.98C150.598 174.92 150.466 174.806 150.286 174.638C150.106 174.47 149.896 174.338 149.656 174.242C149.416 174.146 149.134 174.098 148.81 174.098C148.366 174.098 148.018 174.194 147.766 174.386C147.526 174.578 147.406 174.83 147.406 175.142C147.406 175.37 147.466 175.556 147.586 175.7C147.706 175.844 147.94 175.982 148.288 176.114C148.636 176.246 149.158 176.378 149.854 176.51C151.006 176.738 151.828 177.092 152.32 177.572C152.824 178.052 153.076 178.64 153.076 179.336C153.076 180.176 152.71 180.86 151.978 181.388C151.246 181.916 150.22 182.18 148.9 182.18ZM155.294 171.092C155.174 171.092 155.072 171.05 154.988 170.966C154.904 170.882 154.862 170.78 154.862 170.66V169.364C154.862 169.244 154.904 169.142 154.988 169.058C155.072 168.974 155.174 168.932 155.294 168.932H156.932C157.052 168.932 157.154 168.974 157.238 169.058C157.334 169.142 157.382 169.244 157.382 169.364V170.66C157.382 170.78 157.34 170.882 157.256 170.966C157.172 171.05 157.064 171.092 156.932 171.092H155.294ZM155.366 182C155.246 182 155.144 181.958 155.06 181.874C154.976 181.79 154.934 181.688 154.934 181.568V173.072C154.934 172.952 154.976 172.85 155.06 172.766C155.144 172.682 155.246 172.64 155.366 172.64H156.86C156.992 172.64 157.094 172.682 157.166 172.766C157.25 172.838 157.292 172.94 157.292 173.072V181.568C157.292 181.688 157.25 181.79 157.166 181.874C157.094 181.958 156.992 182 156.86 182H155.366Z" fill="#FFAAF1"/>
</svg>
