<svg width="807" height="236" viewBox="0 0 807 236" fill="none" xmlns="http://www.w3.org/2000/svg">
<rect width="807" height="236" fill="#02031B"/>
<path d="M74.42 111V108.552H78.596V96.924H74.636V94.44H81.692V108.552H85.508V111H74.42ZM79.964 91.236C79.388 91.236 78.896 91.032 78.488 90.624C78.08 90.216 77.876 89.736 77.876 89.184C77.876 88.608 78.068 88.128 78.452 87.744C78.86 87.336 79.364 87.132 79.964 87.132C80.516 87.132 80.996 87.336 81.404 87.744C81.836 88.152 82.052 88.632 82.052 89.184C82.052 89.736 81.836 90.216 81.404 90.624C80.996 91.032 80.516 91.236 79.964 91.236ZM94.544 96.888H90.98V94.44H94.544V93.216C94.544 91.728 94.82 90.516 95.372 89.58C95.948 88.62 96.716 87.912 97.676 87.456C98.636 87 99.704 86.772 100.88 86.772C101.96 86.772 102.956 86.964 103.868 87.348C104.804 87.732 105.584 88.296 106.208 89.04L104.768 91.236L104.588 91.524L104.336 91.38C104.288 91.188 104.228 90.996 104.156 90.804C104.084 90.612 103.916 90.384 103.652 90.12C102.932 89.52 102.056 89.22 101.024 89.22C99.992 89.22 99.152 89.532 98.504 90.156C97.88 90.756 97.568 91.764 97.568 93.18V94.44H102.824V96.888H97.568V111H94.544V96.888ZM223.532 100.128C222.908 100.128 222.368 99.9 221.912 99.444C221.456 98.988 221.228 98.46 221.228 97.86C221.228 97.236 221.456 96.696 221.912 96.24C222.368 95.784 222.908 95.556 223.532 95.556C224.132 95.556 224.672 95.784 225.152 96.24C225.632 96.672 225.872 97.212 225.872 97.86C225.872 98.46 225.644 98.988 225.188 99.444C224.732 99.9 224.18 100.128 223.532 100.128ZM223.532 111.396C222.884 111.396 222.332 111.18 221.876 110.748C221.444 110.292 221.228 109.752 221.228 109.128C221.228 108.504 221.456 107.964 221.912 107.508C222.368 107.052 222.908 106.824 223.532 106.824C224.132 106.824 224.672 107.052 225.152 107.508C225.632 107.964 225.872 108.504 225.872 109.128C225.872 109.752 225.644 110.292 225.188 110.748C224.732 111.18 224.18 111.396 223.532 111.396ZM73.016 155.012V132.44H76.112V135.392C76.544 134.24 77.192 133.4 78.056 132.872C78.92 132.344 79.904 132.08 81.008 132.08C82.232 132.08 83.348 132.404 84.356 133.052C85.388 133.676 86.216 134.624 86.84 135.896C87.488 137.144 87.812 138.728 87.812 140.648C87.812 142.592 87.476 144.224 86.804 145.544C86.156 146.84 85.304 147.812 84.248 148.46C83.216 149.108 82.112 149.432 80.936 149.432C79.976 149.432 79.076 149.228 78.236 148.82C77.396 148.412 76.712 147.836 76.184 147.092V155.012H73.016ZM80.288 146.84C81.032 146.84 81.728 146.66 82.376 146.3C83.048 145.916 83.588 145.28 83.996 144.392C84.428 143.48 84.644 142.232 84.644 140.648C84.644 138.8 84.284 137.348 83.564 136.292C82.868 135.236 81.884 134.684 80.612 134.636C79.34 134.588 78.272 135.068 77.408 136.076C76.568 137.084 76.148 138.788 76.148 141.188C76.196 143.084 76.58 144.5 77.3 145.436C78.02 146.372 79.016 146.84 80.288 146.84ZM92.924 132.44H96.128L96.092 135.392C96.548 134.312 97.244 133.484 98.18 132.908C99.116 132.332 100.112 132.044 101.168 132.044C102.944 132.044 104.42 132.656 105.596 133.88L104.264 136.364L104.12 136.688L103.868 136.544C103.796 136.352 103.712 136.172 103.616 136.004C103.544 135.812 103.352 135.596 103.04 135.356C102.368 134.9 101.636 134.672 100.844 134.672C100.052 134.672 99.284 134.864 98.54 135.248C97.82 135.632 97.22 136.244 96.74 137.084C96.284 137.9 96.056 138.956 96.056 140.252V149.036H92.924V132.44ZM110.42 149V146.552H114.596V134.924H110.636V132.44H117.692V146.552H121.508V149H110.42ZM115.964 129.236C115.388 129.236 114.896 129.032 114.488 128.624C114.08 128.216 113.876 127.736 113.876 127.184C113.876 126.608 114.068 126.128 114.452 125.744C114.86 125.336 115.364 125.132 115.964 125.132C116.516 125.132 116.996 125.336 117.404 125.744C117.836 126.152 118.052 126.632 118.052 127.184C118.052 127.736 117.836 128.216 117.404 128.624C116.996 129.032 116.516 129.236 115.964 129.236ZM127.376 149V132.44H130.436V135.176C131.06 134.216 131.828 133.46 132.74 132.908C133.652 132.332 134.66 132.044 135.764 132.044C136.676 132.044 137.516 132.284 138.284 132.764C139.052 133.22 139.652 133.952 140.084 134.96C140.54 135.968 140.768 137.312 140.768 138.992V149H137.744V139.064C137.744 137.456 137.468 136.316 136.916 135.644C136.388 134.948 135.716 134.6 134.9 134.6C134.228 134.6 133.544 134.792 132.848 135.176C132.152 135.56 131.576 136.112 131.12 136.832C130.664 137.552 130.436 138.392 130.436 139.352V149H127.376ZM153.764 149.288C151.7 149.288 150.296 148.58 149.552 147.164C148.832 145.748 148.532 143.408 148.652 140.144L148.832 134.924H145.376V132.44H148.94L149.084 128.336L152.288 127.94L152.648 127.904L152.684 128.156C152.564 128.324 152.456 128.504 152.36 128.696C152.288 128.864 152.228 129.14 152.18 129.524L151.964 132.44H157.58V134.924H151.964L151.712 140.252C151.64 142.004 151.688 143.348 151.856 144.284C152.024 145.22 152.312 145.868 152.72 146.228C153.128 146.588 153.668 146.768 154.34 146.768C155.132 146.768 155.828 146.612 156.428 146.3C157.052 145.988 157.676 145.604 158.3 145.148L159.092 147.488C157.484 148.688 155.708 149.288 153.764 149.288Z" fill="#E23237"/>
<path d="M127.448 108.66C129.08 106.98 130.532 105.516 131.804 104.268C133.1 102.996 134.192 101.844 135.08 100.812C135.968 99.756 136.64 98.748 137.096 97.788C137.576 96.828 137.816 95.82 137.816 94.764C137.816 93.372 137.468 92.388 136.772 91.812C136.1 91.236 135.248 90.948 134.216 90.948C133.376 90.948 132.596 91.116 131.876 91.452C131.156 91.788 130.508 92.316 129.932 93.036C129.716 93.372 129.584 93.624 129.536 93.792C129.488 93.96 129.476 94.152 129.5 94.368L129.32 94.548L129.068 94.368L126.908 92.712C127.652 91.32 128.66 90.252 129.932 89.508C131.228 88.74 132.644 88.356 134.18 88.356C135.452 88.356 136.592 88.62 137.6 89.148C138.608 89.676 139.388 90.42 139.94 91.38C140.516 92.34 140.804 93.48 140.804 94.8C140.804 96.024 140.552 97.176 140.048 98.256C139.544 99.336 138.848 100.416 137.96 101.496C137.096 102.552 136.1 103.644 134.972 104.772C133.844 105.9 132.644 107.124 131.372 108.444H139.292C139.7 108.444 139.988 108.42 140.156 108.372C140.324 108.324 140.48 108.228 140.624 108.084H140.912V111H127.448V108.66ZM205.028 111V92.1L200.636 93.468L199.952 91.632L205.856 88.536H208.052V111H205.028Z" fill="white"/>
<path d="M162.404 109.452V106.32L174.572 99.48L162.476 93.36V90.408L177.848 98.508V100.38L162.404 109.452Z" fill="#00ADEF"/>
<path d="M193.22 152.78C191.132 151.844 189.332 150.584 187.82 149C186.332 147.416 185.18 145.64 184.364 143.672C183.572 141.68 183.176 139.616 183.176 137.48C183.176 135.344 183.572 133.316 184.364 131.396C185.156 129.452 186.284 127.724 187.748 126.212C189.212 124.676 190.964 123.44 193.004 122.504L193.796 125.096C191.468 126.344 189.608 128.06 188.216 130.244C186.848 132.428 186.164 134.876 186.164 137.588C186.164 139.364 186.476 141.068 187.1 142.7C187.748 144.308 188.66 145.76 189.836 147.056C191.036 148.352 192.44 149.42 194.048 150.26L193.22 152.78ZM435.788 152.78L434.96 150.26C436.592 149.42 437.996 148.352 439.172 147.056C440.348 145.76 441.248 144.308 441.872 142.7C442.52 141.068 442.844 139.364 442.844 137.588C442.844 134.876 442.148 132.428 440.756 130.244C439.388 128.06 437.54 126.344 435.212 125.096L436.004 122.504C438.044 123.44 439.796 124.676 441.26 126.212C442.724 127.724 443.852 129.452 444.644 131.396C445.436 133.316 445.832 135.344 445.832 137.48C445.832 139.616 445.424 141.68 444.608 143.672C443.816 145.64 442.664 147.416 441.152 149C439.664 150.584 437.876 151.844 435.788 152.78Z" fill="#FFD43B"/>
<path d="M221.66 125.924L223.136 127.256C222.488 127.88 221.936 128.54 221.48 129.236C221.048 129.908 220.832 130.484 220.832 130.964C220.832 131.324 220.976 131.636 221.264 131.9C221.576 132.164 221.876 132.44 222.164 132.728C222.452 133.016 222.596 133.388 222.596 133.844C222.596 134.492 222.38 135.032 221.948 135.464C221.54 135.896 220.988 136.112 220.292 136.112C219.62 136.112 219.008 135.824 218.456 135.248C217.928 134.672 217.664 133.928 217.664 133.016C217.664 131 218.996 128.636 221.66 125.924ZM229.04 125.924L230.516 127.256C229.868 127.88 229.316 128.54 228.86 129.236C228.428 129.908 228.212 130.484 228.212 130.964C228.212 131.324 228.356 131.636 228.644 131.9C228.956 132.164 229.256 132.44 229.544 132.728C229.832 133.016 229.976 133.388 229.976 133.844C229.976 134.492 229.76 135.032 229.328 135.464C228.92 135.896 228.368 136.112 227.672 136.112C227 136.112 226.388 135.824 225.836 135.248C225.308 134.672 225.044 133.928 225.044 133.016C225.044 131 226.376 128.636 229.04 125.924ZM236.42 149V146.552H240.596V134.924H236.636V132.44H243.692V146.552H247.508V149H236.42ZM241.964 129.236C241.388 129.236 240.896 129.032 240.488 128.624C240.08 128.216 239.876 127.736 239.876 127.184C239.876 126.608 240.068 126.128 240.452 125.744C240.86 125.336 241.364 125.132 241.964 125.132C242.516 125.132 242.996 125.336 243.404 125.744C243.836 126.152 244.052 126.632 244.052 127.184C244.052 127.736 243.836 128.216 243.404 128.624C242.996 129.032 242.516 129.236 241.964 129.236ZM253.376 149V132.44H256.436V135.176C257.06 134.216 257.828 133.46 258.74 132.908C259.652 132.332 260.66 132.044 261.764 132.044C262.676 132.044 263.516 132.284 264.284 132.764C265.052 133.22 265.652 133.952 266.084 134.96C266.54 135.968 266.768 137.312 266.768 138.992V149H263.744V139.064C263.744 137.456 263.468 136.316 262.916 135.644C262.388 134.948 261.716 134.6 260.9 134.6C260.228 134.6 259.544 134.792 258.848 135.176C258.152 135.56 257.576 136.112 257.12 136.832C256.664 137.552 256.436 138.392 256.436 139.352V149H253.376ZM277.316 149.36C276.164 149.36 275.06 149.048 274.004 148.424C272.972 147.776 272.12 146.804 271.448 145.508C270.8 144.188 270.476 142.544 270.476 140.576C270.476 138.608 270.812 137 271.484 135.752C272.156 134.48 273.02 133.544 274.076 132.944C275.132 132.32 276.248 132.008 277.424 132.008C278.456 132.008 279.368 132.236 280.16 132.692C280.952 133.148 281.552 133.772 281.96 134.564V124.988H285.236V125.276C285.092 125.42 284.996 125.576 284.948 125.744C284.924 125.912 284.912 126.2 284.912 126.608L284.948 146.552C284.948 146.96 284.96 147.368 284.984 147.776C285.032 148.184 285.14 148.592 285.308 149H282.284C282.092 148.592 281.984 148.208 281.96 147.848C281.936 147.488 281.924 147.104 281.924 146.696C281.42 147.536 280.772 148.196 279.98 148.676C279.212 149.132 278.324 149.36 277.316 149.36ZM277.82 146.768C279.26 146.768 280.28 146.204 280.88 145.076C281.504 143.924 281.816 142.448 281.816 140.648C281.816 138.8 281.48 137.312 280.808 136.184C280.136 135.056 279.08 134.492 277.64 134.492C276.296 134.492 275.264 135.02 274.544 136.076C273.848 137.132 273.5 138.536 273.5 140.288C273.5 142.256 273.884 143.828 274.652 145.004C275.42 146.18 276.476 146.768 277.82 146.768ZM296.792 149.36C294.368 149.36 292.4 148.628 290.888 147.164C289.4 145.676 288.656 143.552 288.656 140.792C288.656 138.944 288.992 137.372 289.664 136.076C290.36 134.756 291.284 133.76 292.436 133.088C293.612 132.392 294.908 132.044 296.324 132.044C297.572 132.044 298.712 132.332 299.744 132.908C300.8 133.484 301.628 134.36 302.228 135.536C302.852 136.712 303.164 138.188 303.164 139.964C303.164 140.18 303.152 140.42 303.128 140.684C303.128 140.924 303.116 141.14 303.092 141.332H291.608C291.704 143.276 292.268 144.692 293.3 145.58C294.332 146.468 295.532 146.912 296.9 146.912C297.716 146.912 298.472 146.78 299.168 146.516C299.864 146.228 300.488 145.784 301.04 145.184L302.696 146.768C301.256 148.496 299.288 149.36 296.792 149.36ZM291.716 138.992H300.104C300.104 137.576 299.744 136.46 299.024 135.644C298.304 134.828 297.344 134.42 296.144 134.42C295.064 134.42 294.104 134.792 293.264 135.536C292.424 136.256 291.908 137.408 291.716 138.992ZM307.376 149V132.44H310.436V135.176C311.06 134.216 311.828 133.46 312.74 132.908C313.652 132.332 314.66 132.044 315.764 132.044C316.676 132.044 317.516 132.284 318.284 132.764C319.052 133.22 319.652 133.952 320.084 134.96C320.54 135.968 320.768 137.312 320.768 138.992V149H317.744V139.064C317.744 137.456 317.468 136.316 316.916 135.644C316.388 134.948 315.716 134.6 314.9 134.6C314.228 134.6 313.544 134.792 312.848 135.176C312.152 135.56 311.576 136.112 311.12 136.832C310.664 137.552 310.436 138.392 310.436 139.352V149H307.376ZM333.764 149.288C331.7 149.288 330.296 148.58 329.552 147.164C328.832 145.748 328.532 143.408 328.652 140.144L328.832 134.924H325.376V132.44H328.94L329.084 128.336L332.288 127.94L332.648 127.904L332.684 128.156C332.564 128.324 332.456 128.504 332.36 128.696C332.288 128.864 332.228 129.14 332.18 129.524L331.964 132.44H337.58V134.924H331.964L331.712 140.252C331.64 142.004 331.688 143.348 331.856 144.284C332.024 145.22 332.312 145.868 332.72 146.228C333.128 146.588 333.668 146.768 334.34 146.768C335.132 146.768 335.828 146.612 336.428 146.3C337.052 145.988 337.676 145.604 338.3 145.148L339.092 147.488C337.484 148.688 335.708 149.288 333.764 149.288ZM348.452 149.396C346.58 149.396 345.14 148.976 344.132 148.136C343.124 147.272 342.62 146.168 342.62 144.824C342.62 143.648 342.98 142.616 343.7 141.728C344.444 140.84 345.464 140.156 346.76 139.676C348.056 139.196 349.556 138.956 351.26 138.956C351.668 138.956 352.124 138.968 352.628 138.992C353.132 138.992 353.66 139.016 354.212 139.064C354.068 137.336 353.6 136.16 352.808 135.536C352.04 134.888 350.96 134.564 349.568 134.564C348.776 134.564 348.008 134.708 347.264 134.996C346.544 135.284 345.86 135.74 345.212 136.364L343.628 134.456C344.468 133.64 345.404 133.04 346.436 132.656C347.492 132.272 348.596 132.08 349.748 132.08C351.188 132.08 352.46 132.32 353.564 132.8C354.668 133.256 355.532 134.06 356.156 135.212C356.78 136.364 357.092 137.948 357.092 139.964V149H353.816V146.732C353.192 147.812 352.376 148.532 351.368 148.892C350.384 149.228 349.412 149.396 348.452 149.396ZM345.68 144.536C345.68 145.496 345.98 146.156 346.58 146.516C347.204 146.852 347.972 147.02 348.884 147.02C350.492 147.02 351.752 146.54 352.664 145.58C353.6 144.62 354.128 143.204 354.248 141.332C353.264 141.236 352.304 141.188 351.368 141.188C349.568 141.188 348.164 141.464 347.156 142.016C346.172 142.568 345.68 143.408 345.68 144.536ZM368.144 149.36C366.704 149.36 365.372 149.156 364.148 148.748C362.948 148.316 361.868 147.656 360.908 146.768L362.456 144.032L362.672 143.708L362.888 143.852C362.936 144.044 362.996 144.248 363.068 144.464C363.14 144.656 363.308 144.896 363.572 145.184C364.124 145.688 364.76 146.096 365.48 146.408C366.2 146.72 367.112 146.876 368.216 146.876C369.416 146.876 370.352 146.66 371.024 146.228C371.696 145.796 372.032 145.22 372.032 144.5C372.032 143.852 371.72 143.324 371.096 142.916C370.496 142.484 369.452 142.04 367.964 141.584C366.092 141.056 364.604 140.384 363.5 139.568C362.396 138.752 361.844 137.708 361.844 136.436C361.844 135.14 362.384 134.084 363.464 133.268C364.544 132.452 366.08 132.044 368.072 132.044C369.56 132.044 370.82 132.26 371.852 132.692C372.908 133.124 373.856 133.772 374.696 134.636L373.04 136.76L372.788 137.048L372.608 136.868C372.584 136.676 372.524 136.496 372.428 136.328C372.356 136.136 372.176 135.908 371.888 135.644C371.36 135.236 370.76 134.924 370.088 134.708C369.44 134.492 368.792 134.384 368.144 134.384C367.232 134.384 366.44 134.552 365.768 134.888C365.12 135.2 364.796 135.668 364.796 136.292C364.796 136.82 365.108 137.312 365.732 137.768C366.356 138.224 367.544 138.692 369.296 139.172C371.336 139.772 372.788 140.456 373.652 141.224C374.54 141.992 374.984 142.976 374.984 144.176C374.984 145.112 374.732 145.976 374.228 146.768C373.724 147.56 372.956 148.196 371.924 148.676C370.916 149.132 369.656 149.36 368.144 149.36ZM380.42 149V146.552H384.596V134.924H380.636V132.44H387.692V146.552H391.508V149H380.42ZM385.964 129.236C385.388 129.236 384.896 129.032 384.488 128.624C384.08 128.216 383.876 127.736 383.876 127.184C383.876 126.608 384.068 126.128 384.452 125.744C384.86 125.336 385.364 125.132 385.964 125.132C386.516 125.132 386.996 125.336 387.404 125.744C387.836 126.152 388.052 126.632 388.052 127.184C388.052 127.736 387.836 128.216 387.404 128.624C386.996 129.032 386.516 129.236 385.964 129.236ZM406.628 136.112L405.152 134.78C405.8 134.156 406.34 133.508 406.772 132.836C407.228 132.14 407.456 131.552 407.456 131.072C407.456 130.712 407.3 130.4 406.988 130.136C406.7 129.872 406.412 129.596 406.124 129.308C405.836 129.02 405.692 128.648 405.692 128.192C405.692 127.544 405.896 127.004 406.304 126.572C406.736 126.14 407.3 125.924 407.996 125.924C408.668 125.924 409.268 126.212 409.796 126.788C410.348 127.364 410.624 128.108 410.624 129.02C410.624 131.036 409.292 133.4 406.628 136.112ZM399.248 136.112L397.772 134.78C398.42 134.156 398.96 133.508 399.392 132.836C399.848 132.14 400.076 131.552 400.076 131.072C400.076 130.712 399.92 130.4 399.608 130.136C399.32 129.872 399.032 129.596 398.744 129.308C398.456 129.02 398.312 128.648 398.312 128.192C398.312 127.544 398.516 127.004 398.924 126.572C399.356 126.14 399.92 125.924 400.616 125.924C401.288 125.924 401.888 126.212 402.416 126.788C402.968 127.364 403.244 128.108 403.244 129.02C403.244 131.036 401.912 133.4 399.248 136.112Z" fill="#3EFF68"/>
</svg>
