<svg width="807" height="186" viewBox="0 0 807 186" fill="none" xmlns="http://www.w3.org/2000/svg">
<rect width="807" height="186" fill="#02031B"/>
<rect x="396" y="64" width="126" height="66" stroke="#FF0CD8" stroke-width="2"/>
<path d="M453 56V32H578" stroke="#FF0CD8" stroke-width="2" stroke-linecap="round" stroke-linejoin="round"/>
<path d="M588.436 38.49C589.768 38.49 590.932 38.748 591.928 39.264C592.936 39.768 593.71 40.5 594.25 41.46C594.802 42.408 595.078 43.518 595.078 44.79C595.078 46.062 594.802 47.166 594.25 48.102C593.71 49.038 592.936 49.758 591.928 50.262C590.932 50.754 589.768 51 588.436 51H584.35V38.49H588.436ZM588.436 49.326C589.9 49.326 591.022 48.93 591.802 48.138C592.582 47.346 592.972 46.23 592.972 44.79C592.972 43.338 592.582 42.204 591.802 41.388C591.022 40.572 589.9 40.164 588.436 40.164H586.402V49.326H588.436ZM596.428 45.996C596.428 45 596.632 44.118 597.04 43.35C597.46 42.582 598.024 41.988 598.732 41.568C599.452 41.136 600.244 40.92 601.108 40.92C601.888 40.92 602.566 41.076 603.142 41.388C603.73 41.688 604.198 42.066 604.546 42.522V41.082H606.616V51H604.546V49.524C604.198 49.992 603.724 50.382 603.124 50.694C602.524 51.006 601.84 51.162 601.072 51.162C600.22 51.162 599.44 50.946 598.732 50.514C598.024 50.07 597.46 49.458 597.04 48.678C596.632 47.886 596.428 46.992 596.428 45.996ZM604.546 46.032C604.546 45.348 604.402 44.754 604.114 44.25C603.838 43.746 603.472 43.362 603.016 43.098C602.56 42.834 602.068 42.702 601.54 42.702C601.012 42.702 600.52 42.834 600.064 43.098C599.608 43.35 599.236 43.728 598.948 44.232C598.672 44.724 598.534 45.312 598.534 45.996C598.534 46.68 598.672 47.28 598.948 47.796C599.236 48.312 599.608 48.708 600.064 48.984C600.532 49.248 601.024 49.38 601.54 49.38C602.068 49.38 602.56 49.248 603.016 48.984C603.472 48.72 603.838 48.336 604.114 47.832C604.402 47.316 604.546 46.716 604.546 46.032ZM614.315 40.92C615.095 40.92 615.791 41.082 616.403 41.406C617.027 41.73 617.513 42.21 617.861 42.846C618.209 43.482 618.383 44.25 618.383 45.15V51H616.349V45.456C616.349 44.568 616.127 43.89 615.683 43.422C615.239 42.942 614.633 42.702 613.865 42.702C613.097 42.702 612.485 42.942 612.029 43.422C611.585 43.89 611.363 44.568 611.363 45.456V51H609.311V41.082H611.363V42.216C611.699 41.808 612.125 41.49 612.641 41.262C613.169 41.034 613.727 40.92 614.315 40.92ZM626.72 39.768C626.348 39.768 626.036 39.642 625.784 39.39C625.532 39.138 625.406 38.826 625.406 38.454C625.406 38.082 625.532 37.77 625.784 37.518C626.036 37.266 626.348 37.14 626.72 37.14C627.08 37.14 627.386 37.266 627.638 37.518C627.89 37.77 628.016 38.082 628.016 38.454C628.016 38.826 627.89 39.138 627.638 39.39C627.386 39.642 627.08 39.768 626.72 39.768ZM627.728 52.944C627.728 53.916 627.482 54.618 626.99 55.05C626.51 55.494 625.808 55.716 624.884 55.716H623.822V53.988H624.524C624.944 53.988 625.238 53.904 625.406 53.736C625.586 53.58 625.676 53.316 625.676 52.944V41.082H627.728V52.944ZM631.466 39.768C631.094 39.768 630.782 39.642 630.53 39.39C630.278 39.138 630.152 38.826 630.152 38.454C630.152 38.082 630.278 37.77 630.53 37.518C630.782 37.266 631.094 37.14 631.466 37.14C631.826 37.14 632.132 37.266 632.384 37.518C632.636 37.77 632.762 38.082 632.762 38.454C632.762 38.826 632.636 39.138 632.384 39.39C632.132 39.642 631.826 39.768 631.466 39.768ZM632.474 41.082V51H630.422V41.082H632.474ZM639.092 46.05L643.664 51H640.892L637.22 46.734V51H635.168V37.68H637.22V45.42L640.82 41.082H643.664L639.092 46.05ZM644.451 45.996C644.451 45 644.655 44.118 645.063 43.35C645.483 42.582 646.047 41.988 646.755 41.568C647.475 41.136 648.267 40.92 649.131 40.92C649.911 40.92 650.589 41.076 651.165 41.388C651.753 41.688 652.221 42.066 652.569 42.522V41.082H654.639V51H652.569V49.524C652.221 49.992 651.747 50.382 651.147 50.694C650.547 51.006 649.863 51.162 649.095 51.162C648.243 51.162 647.463 50.946 646.755 50.514C646.047 50.07 645.483 49.458 645.063 48.678C644.655 47.886 644.451 46.992 644.451 45.996ZM652.569 46.032C652.569 45.348 652.425 44.754 652.137 44.25C651.861 43.746 651.495 43.362 651.039 43.098C650.583 42.834 650.091 42.702 649.563 42.702C649.035 42.702 648.543 42.834 648.087 43.098C647.631 43.35 647.259 43.728 646.971 44.232C646.695 44.724 646.557 45.312 646.557 45.996C646.557 46.68 646.695 47.28 646.971 47.796C647.259 48.312 647.631 48.708 648.087 48.984C648.555 49.248 649.047 49.38 649.563 49.38C650.091 49.38 650.583 49.248 651.039 48.984C651.495 48.72 651.861 48.336 652.137 47.832C652.425 47.316 652.569 46.716 652.569 46.032ZM661.326 45.996C661.326 45 661.53 44.118 661.938 43.35C662.358 42.582 662.922 41.988 663.63 41.568C664.35 41.136 665.148 40.92 666.024 40.92C666.672 40.92 667.308 41.064 667.932 41.352C668.568 41.628 669.072 42 669.444 42.468V37.68H671.514V51H669.444V49.506C669.108 49.986 668.64 50.382 668.04 50.694C667.452 51.006 666.774 51.162 666.006 51.162C665.142 51.162 664.35 50.946 663.63 50.514C662.922 50.07 662.358 49.458 661.938 48.678C661.53 47.886 661.326 46.992 661.326 45.996ZM669.444 46.032C669.444 45.348 669.3 44.754 669.012 44.25C668.736 43.746 668.37 43.362 667.914 43.098C667.458 42.834 666.966 42.702 666.438 42.702C665.91 42.702 665.418 42.834 664.962 43.098C664.506 43.35 664.134 43.728 663.846 44.232C663.57 44.724 663.432 45.312 663.432 45.996C663.432 46.68 663.57 47.28 663.846 47.796C664.134 48.312 664.506 48.708 664.962 48.984C665.43 49.248 665.922 49.38 666.438 49.38C666.966 49.38 667.458 49.248 667.914 48.984C668.37 48.72 668.736 48.336 669.012 47.832C669.3 47.316 669.444 46.716 669.444 46.032ZM675.253 39.768C674.881 39.768 674.569 39.642 674.317 39.39C674.065 39.138 673.939 38.826 673.939 38.454C673.939 38.082 674.065 37.77 674.317 37.518C674.569 37.266 674.881 37.14 675.253 37.14C675.613 37.14 675.919 37.266 676.171 37.518C676.423 37.77 676.549 38.082 676.549 38.454C676.549 38.826 676.423 39.138 676.171 39.39C675.919 39.642 675.613 39.768 675.253 39.768ZM676.261 41.082V51H674.209V41.082H676.261ZM685.683 42.54C686.031 42.084 686.505 41.7 687.105 41.388C687.705 41.076 688.383 40.92 689.139 40.92C690.003 40.92 690.789 41.136 691.497 41.568C692.217 41.988 692.781 42.582 693.189 43.35C693.597 44.118 693.801 45 693.801 45.996C693.801 46.992 693.597 47.886 693.189 48.678C692.781 49.458 692.217 50.07 691.497 50.514C690.789 50.946 690.003 51.162 689.139 51.162C688.383 51.162 687.711 51.012 687.123 50.712C686.535 50.4 686.055 50.016 685.683 49.56V55.716H683.631V41.082H685.683V42.54ZM691.713 45.996C691.713 45.312 691.569 44.724 691.281 44.232C691.005 43.728 690.633 43.35 690.165 43.098C689.709 42.834 689.217 42.702 688.689 42.702C688.173 42.702 687.681 42.834 687.213 43.098C686.757 43.362 686.385 43.746 686.097 44.25C685.821 44.754 685.683 45.348 685.683 46.032C685.683 46.716 685.821 47.316 686.097 47.832C686.385 48.336 686.757 48.72 687.213 48.984C687.681 49.248 688.173 49.38 688.689 49.38C689.217 49.38 689.709 49.248 690.165 48.984C690.633 48.708 691.005 48.312 691.281 47.796C691.569 47.28 691.713 46.68 691.713 45.996ZM697.882 42.522C698.182 42.018 698.578 41.628 699.07 41.352C699.574 41.064 700.168 40.92 700.852 40.92V43.044H700.33C699.526 43.044 698.914 43.248 698.494 43.656C698.086 44.064 697.882 44.772 697.882 45.78V51H695.83V41.082H697.882V42.522ZM703.783 39.768C703.411 39.768 703.099 39.642 702.847 39.39C702.595 39.138 702.469 38.826 702.469 38.454C702.469 38.082 702.595 37.77 702.847 37.518C703.099 37.266 703.411 37.14 703.783 37.14C704.143 37.14 704.449 37.266 704.701 37.518C704.953 37.77 705.079 38.082 705.079 38.454C705.079 38.826 704.953 39.138 704.701 39.39C704.449 39.642 704.143 39.768 703.783 39.768ZM704.791 41.082V51H702.739V41.082H704.791ZM712.489 40.92C713.269 40.92 713.965 41.082 714.577 41.406C715.201 41.73 715.687 42.21 716.035 42.846C716.383 43.482 716.557 44.25 716.557 45.15V51H714.523V45.456C714.523 44.568 714.301 43.89 713.857 43.422C713.413 42.942 712.807 42.702 712.039 42.702C711.271 42.702 710.659 42.942 710.203 43.422C709.759 43.89 709.537 44.568 709.537 45.456V51H707.485V41.082H709.537V42.216C709.873 41.808 710.299 41.49 710.815 41.262C711.343 41.034 711.901 40.92 712.489 40.92ZM721.568 42.756V48.246C721.568 48.618 721.652 48.888 721.82 49.056C722 49.212 722.3 49.29 722.72 49.29H723.98V51H722.36C721.436 51 720.728 50.784 720.236 50.352C719.744 49.92 719.498 49.218 719.498 48.246V42.756H718.328V41.082H719.498V38.616H721.568V41.082H723.98V42.756H721.568ZM729.863 45.996C729.863 45 730.067 44.118 730.475 43.35C730.895 42.582 731.459 41.988 732.167 41.568C732.887 41.136 733.679 40.92 734.543 40.92C735.323 40.92 736.001 41.076 736.577 41.388C737.165 41.688 737.633 42.066 737.981 42.522V41.082H740.051V51H737.981V49.524C737.633 49.992 737.159 50.382 736.559 50.694C735.959 51.006 735.275 51.162 734.507 51.162C733.655 51.162 732.875 50.946 732.167 50.514C731.459 50.07 730.895 49.458 730.475 48.678C730.067 47.886 729.863 46.992 729.863 45.996ZM737.981 46.032C737.981 45.348 737.837 44.754 737.549 44.25C737.273 43.746 736.907 43.362 736.451 43.098C735.995 42.834 735.503 42.702 734.975 42.702C734.447 42.702 733.955 42.834 733.499 43.098C733.043 43.35 732.671 43.728 732.383 44.232C732.107 44.724 731.969 45.312 731.969 45.996C731.969 46.68 732.107 47.28 732.383 47.796C732.671 48.312 733.043 48.708 733.499 48.984C733.967 49.248 734.459 49.38 734.975 49.38C735.503 49.38 735.995 49.248 736.451 48.984C736.907 48.72 737.273 48.336 737.549 47.832C737.837 47.316 737.981 46.716 737.981 46.032ZM746.67 46.05L751.242 51H748.47L744.798 46.734V51H742.746V37.68H744.798V45.42L748.398 41.082H751.242L746.67 46.05ZM752.029 45.996C752.029 45 752.233 44.118 752.641 43.35C753.061 42.582 753.625 41.988 754.333 41.568C755.053 41.136 755.845 40.92 756.709 40.92C757.489 40.92 758.167 41.076 758.743 41.388C759.331 41.688 759.799 42.066 760.147 42.522V41.082H762.217V51H760.147V49.524C759.799 49.992 759.325 50.382 758.725 50.694C758.125 51.006 757.441 51.162 756.673 51.162C755.821 51.162 755.041 50.946 754.333 50.514C753.625 50.07 753.061 49.458 752.641 48.678C752.233 47.886 752.029 46.992 752.029 45.996ZM760.147 46.032C760.147 45.348 760.003 44.754 759.715 44.25C759.439 43.746 759.073 43.362 758.617 43.098C758.161 42.834 757.669 42.702 757.141 42.702C756.613 42.702 756.121 42.834 755.665 43.098C755.209 43.35 754.837 43.728 754.549 44.232C754.273 44.724 754.135 45.312 754.135 45.996C754.135 46.68 754.273 47.28 754.549 47.796C754.837 48.312 755.209 48.708 755.665 48.984C756.133 49.248 756.625 49.38 757.141 49.38C757.669 49.38 758.161 49.248 758.617 48.984C759.073 48.72 759.439 48.336 759.715 47.832C760.003 47.316 760.147 46.716 760.147 46.032ZM769.917 40.92C770.697 40.92 771.393 41.082 772.005 41.406C772.629 41.73 773.115 42.21 773.463 42.846C773.811 43.482 773.985 44.25 773.985 45.15V51H771.951V45.456C771.951 44.568 771.729 43.89 771.285 43.422C770.841 42.942 770.235 42.702 769.467 42.702C768.699 42.702 768.087 42.942 767.631 43.422C767.187 43.89 766.965 44.568 766.965 45.456V51H764.913V41.082H766.965V42.216C767.301 41.808 767.727 41.49 768.243 41.262C768.771 41.034 769.329 40.92 769.917 40.92ZM596.356 67.92C597.136 67.92 597.832 68.082 598.444 68.406C599.068 68.73 599.554 69.21 599.902 69.846C600.262 70.482 600.442 71.25 600.442 72.15V78H598.408V72.456C598.408 71.568 598.186 70.89 597.742 70.422C597.298 69.942 596.692 69.702 595.924 69.702C595.156 69.702 594.544 69.942 594.088 70.422C593.644 70.89 593.422 71.568 593.422 72.456V78H591.388V72.456C591.388 71.568 591.166 70.89 590.722 70.422C590.278 69.942 589.672 69.702 588.904 69.702C588.136 69.702 587.524 69.942 587.068 70.422C586.624 70.89 586.402 71.568 586.402 72.456V78H584.35V68.082H586.402V69.216C586.738 68.808 587.164 68.49 587.68 68.262C588.196 68.034 588.748 67.92 589.336 67.92C590.128 67.92 590.836 68.088 591.46 68.424C592.084 68.76 592.564 69.246 592.9 69.882C593.2 69.282 593.668 68.808 594.304 68.46C594.94 68.1 595.624 67.92 596.356 67.92ZM612.143 72.798C612.143 73.17 612.119 73.506 612.071 73.806H604.493C604.553 74.598 604.847 75.234 605.375 75.714C605.903 76.194 606.551 76.434 607.319 76.434C608.423 76.434 609.203 75.972 609.659 75.048H611.873C611.573 75.96 611.027 76.71 610.235 77.298C609.455 77.874 608.483 78.162 607.319 78.162C606.371 78.162 605.519 77.952 604.763 77.532C604.019 77.1 603.431 76.5 602.999 75.732C602.579 74.952 602.369 74.052 602.369 73.032C602.369 72.012 602.573 71.118 602.981 70.35C603.401 69.57 603.983 68.97 604.727 68.55C605.483 68.13 606.347 67.92 607.319 67.92C608.255 67.92 609.089 68.124 609.821 68.532C610.553 68.94 611.123 69.516 611.531 70.26C611.939 70.992 612.143 71.838 612.143 72.798ZM610.001 72.15C609.989 71.394 609.719 70.788 609.191 70.332C608.663 69.876 608.009 69.648 607.229 69.648C606.521 69.648 605.915 69.876 605.411 70.332C604.907 70.776 604.607 71.382 604.511 72.15H610.001ZM619.167 67.92C619.947 67.92 620.643 68.082 621.255 68.406C621.879 68.73 622.365 69.21 622.713 69.846C623.061 70.482 623.235 71.25 623.235 72.15V78H621.201V72.456C621.201 71.568 620.979 70.89 620.535 70.422C620.091 69.942 619.485 69.702 618.717 69.702C617.949 69.702 617.337 69.942 616.881 70.422C616.437 70.89 616.215 71.568 616.215 72.456V78H614.163V68.082H616.215V69.216C616.551 68.808 616.977 68.49 617.493 68.262C618.021 68.034 618.579 67.92 619.167 67.92ZM629.848 67.92C630.616 67.92 631.294 68.076 631.882 68.388C632.482 68.688 632.95 69.066 633.286 69.522V68.082H635.356V78.162C635.356 79.074 635.164 79.884 634.78 80.592C634.396 81.312 633.838 81.876 633.106 82.284C632.386 82.692 631.522 82.896 630.514 82.896C629.17 82.896 628.054 82.578 627.166 81.942C626.278 81.318 625.774 80.466 625.654 79.386H627.688C627.844 79.902 628.174 80.316 628.678 80.628C629.194 80.952 629.806 81.114 630.514 81.114C631.342 81.114 632.008 80.862 632.512 80.358C633.028 79.854 633.286 79.122 633.286 78.162V76.506C632.938 76.974 632.464 77.37 631.864 77.694C631.276 78.006 630.604 78.162 629.848 78.162C628.984 78.162 628.192 77.946 627.472 77.514C626.764 77.07 626.2 76.458 625.78 75.678C625.372 74.886 625.168 73.992 625.168 72.996C625.168 72 625.372 71.118 625.78 70.35C626.2 69.582 626.764 68.988 627.472 68.568C628.192 68.136 628.984 67.92 629.848 67.92ZM633.286 73.032C633.286 72.348 633.142 71.754 632.854 71.25C632.578 70.746 632.212 70.362 631.756 70.098C631.3 69.834 630.808 69.702 630.28 69.702C629.752 69.702 629.26 69.834 628.804 70.098C628.348 70.35 627.976 70.728 627.688 71.232C627.412 71.724 627.274 72.312 627.274 72.996C627.274 73.68 627.412 74.28 627.688 74.796C627.976 75.312 628.348 75.708 628.804 75.984C629.272 76.248 629.764 76.38 630.28 76.38C630.808 76.38 631.3 76.248 631.756 75.984C632.212 75.72 632.578 75.336 632.854 74.832C633.142 74.316 633.286 73.716 633.286 73.032ZM647.141 72.798C647.141 73.17 647.117 73.506 647.069 73.806H639.491C639.551 74.598 639.845 75.234 640.373 75.714C640.901 76.194 641.549 76.434 642.317 76.434C643.421 76.434 644.201 75.972 644.657 75.048H646.871C646.571 75.96 646.025 76.71 645.233 77.298C644.453 77.874 643.481 78.162 642.317 78.162C641.369 78.162 640.517 77.952 639.761 77.532C639.017 77.1 638.429 76.5 637.997 75.732C637.577 74.952 637.367 74.052 637.367 73.032C637.367 72.012 637.571 71.118 637.979 70.35C638.399 69.57 638.981 68.97 639.725 68.55C640.481 68.13 641.345 67.92 642.317 67.92C643.253 67.92 644.087 68.124 644.819 68.532C645.551 68.94 646.121 69.516 646.529 70.26C646.937 70.992 647.141 71.838 647.141 72.798ZM644.999 72.15C644.987 71.394 644.717 70.788 644.189 70.332C643.661 69.876 643.007 69.648 642.227 69.648C641.519 69.648 640.913 69.876 640.409 70.332C639.905 70.776 639.605 71.382 639.509 72.15H644.999ZM661.167 67.92C661.947 67.92 662.643 68.082 663.255 68.406C663.879 68.73 664.365 69.21 664.713 69.846C665.073 70.482 665.253 71.25 665.253 72.15V78H663.219V72.456C663.219 71.568 662.997 70.89 662.553 70.422C662.109 69.942 661.503 69.702 660.735 69.702C659.967 69.702 659.355 69.942 658.899 70.422C658.455 70.89 658.233 71.568 658.233 72.456V78H656.199V72.456C656.199 71.568 655.977 70.89 655.533 70.422C655.089 69.942 654.483 69.702 653.715 69.702C652.947 69.702 652.335 69.942 651.879 70.422C651.435 70.89 651.213 71.568 651.213 72.456V78H649.161V68.082H651.213V69.216C651.549 68.808 651.975 68.49 652.491 68.262C653.007 68.034 653.559 67.92 654.147 67.92C654.939 67.92 655.647 68.088 656.271 68.424C656.895 68.76 657.375 69.246 657.711 69.882C658.011 69.282 658.479 68.808 659.115 68.46C659.751 68.1 660.435 67.92 661.167 67.92ZM669.916 69.558C670.264 69.078 670.738 68.688 671.338 68.388C671.95 68.076 672.628 67.92 673.372 67.92C674.248 67.92 675.04 68.13 675.748 68.55C676.456 68.97 677.014 69.57 677.422 70.35C677.83 71.118 678.034 72 678.034 72.996C678.034 73.992 677.83 74.886 677.422 75.678C677.014 76.458 676.45 77.07 675.73 77.514C675.022 77.946 674.236 78.162 673.372 78.162C672.604 78.162 671.92 78.012 671.32 77.712C670.732 77.412 670.264 77.028 669.916 76.56V78H667.864V64.68H669.916V69.558ZM675.946 72.996C675.946 72.312 675.802 71.724 675.514 71.232C675.238 70.728 674.866 70.35 674.398 70.098C673.942 69.834 673.45 69.702 672.922 69.702C672.406 69.702 671.914 69.834 671.446 70.098C670.99 70.362 670.618 70.746 670.33 71.25C670.054 71.754 669.916 72.348 669.916 73.032C669.916 73.716 670.054 74.316 670.33 74.832C670.618 75.336 670.99 75.72 671.446 75.984C671.914 76.248 672.406 76.38 672.922 76.38C673.45 76.38 673.942 76.248 674.398 75.984C674.866 75.708 675.238 75.312 675.514 74.796C675.802 74.28 675.946 73.68 675.946 72.996ZM679.379 72.996C679.379 72 679.583 71.118 679.991 70.35C680.411 69.582 680.975 68.988 681.683 68.568C682.403 68.136 683.195 67.92 684.059 67.92C684.839 67.92 685.517 68.076 686.093 68.388C686.681 68.688 687.149 69.066 687.497 69.522V68.082H689.567V78H687.497V76.524C687.149 76.992 686.675 77.382 686.075 77.694C685.475 78.006 684.791 78.162 684.023 78.162C683.171 78.162 682.391 77.946 681.683 77.514C680.975 77.07 680.411 76.458 679.991 75.678C679.583 74.886 679.379 73.992 679.379 72.996ZM687.497 73.032C687.497 72.348 687.353 71.754 687.065 71.25C686.789 70.746 686.423 70.362 685.967 70.098C685.511 69.834 685.019 69.702 684.491 69.702C683.963 69.702 683.471 69.834 683.015 70.098C682.559 70.35 682.187 70.728 681.899 71.232C681.623 71.724 681.485 72.312 681.485 72.996C681.485 73.68 681.623 74.28 681.899 74.796C682.187 75.312 682.559 75.708 683.015 75.984C683.483 76.248 683.975 76.38 684.491 76.38C685.019 76.38 685.511 76.248 685.967 75.984C686.423 75.72 686.789 75.336 687.065 74.832C687.353 74.316 687.497 73.716 687.497 73.032ZM694.314 64.68V78H692.262V64.68H694.314ZM698.052 66.768C697.68 66.768 697.368 66.642 697.116 66.39C696.864 66.138 696.738 65.826 696.738 65.454C696.738 65.082 696.864 64.77 697.116 64.518C697.368 64.266 697.68 64.14 698.052 64.14C698.412 64.14 698.718 64.266 698.97 64.518C699.222 64.77 699.348 65.082 699.348 65.454C699.348 65.826 699.222 66.138 698.97 66.39C698.718 66.642 698.412 66.768 698.052 66.768ZM699.06 68.082V78H697.008V68.082H699.06ZM705.678 73.05L710.25 78H707.478L703.806 73.734V78H701.754V64.68H703.806V72.42L707.406 68.082H710.25L705.678 73.05ZM711.037 72.996C711.037 72 711.241 71.118 711.649 70.35C712.069 69.582 712.633 68.988 713.341 68.568C714.061 68.136 714.853 67.92 715.717 67.92C716.497 67.92 717.175 68.076 717.751 68.388C718.339 68.688 718.807 69.066 719.155 69.522V68.082H721.225V78H719.155V76.524C718.807 76.992 718.333 77.382 717.733 77.694C717.133 78.006 716.449 78.162 715.681 78.162C714.829 78.162 714.049 77.946 713.341 77.514C712.633 77.07 712.069 76.458 711.649 75.678C711.241 74.886 711.037 73.992 711.037 72.996ZM719.155 73.032C719.155 72.348 719.011 71.754 718.723 71.25C718.447 70.746 718.081 70.362 717.625 70.098C717.169 69.834 716.677 69.702 716.149 69.702C715.621 69.702 715.129 69.834 714.673 70.098C714.217 70.35 713.845 70.728 713.557 71.232C713.281 71.724 713.143 72.312 713.143 72.996C713.143 73.68 713.281 74.28 713.557 74.796C713.845 75.312 714.217 75.708 714.673 75.984C715.141 76.248 715.633 76.38 716.149 76.38C716.677 76.38 717.169 76.248 717.625 75.984C718.081 75.72 718.447 75.336 718.723 74.832C719.011 74.316 719.155 73.716 719.155 73.032ZM728.924 67.92C729.704 67.92 730.4 68.082 731.012 68.406C731.636 68.73 732.122 69.21 732.47 69.846C732.818 70.482 732.992 71.25 732.992 72.15V78H730.958V72.456C730.958 71.568 730.736 70.89 730.292 70.422C729.848 69.942 729.242 69.702 728.474 69.702C727.706 69.702 727.094 69.942 726.638 70.422C726.194 70.89 725.972 71.568 725.972 72.456V78H723.92V68.082H725.972V69.216C726.308 68.808 726.734 68.49 727.25 68.262C727.778 68.034 728.336 67.92 728.924 67.92ZM745.29 67.92C746.07 67.92 746.766 68.082 747.378 68.406C748.002 68.73 748.488 69.21 748.836 69.846C749.184 70.482 749.358 71.25 749.358 72.15V78H747.324V72.456C747.324 71.568 747.102 70.89 746.658 70.422C746.214 69.942 745.608 69.702 744.84 69.702C744.072 69.702 743.46 69.942 743.004 70.422C742.56 70.89 742.338 71.568 742.338 72.456V78H740.286V68.082H742.338V69.216C742.674 68.808 743.1 68.49 743.616 68.262C744.144 68.034 744.702 67.92 745.29 67.92ZM753.019 66.768C752.647 66.768 752.335 66.642 752.083 66.39C751.831 66.138 751.705 65.826 751.705 65.454C751.705 65.082 751.831 64.77 752.083 64.518C752.335 64.266 752.647 64.14 753.019 64.14C753.379 64.14 753.685 64.266 753.937 64.518C754.189 64.77 754.315 65.082 754.315 65.454C754.315 65.826 754.189 66.138 753.937 66.39C753.685 66.642 753.379 66.768 753.019 66.768ZM754.027 68.082V78H751.975V68.082H754.027ZM758.773 64.68V78H756.721V64.68H758.773ZM760.783 72.996C760.783 72 760.987 71.118 761.395 70.35C761.815 69.582 762.379 68.988 763.087 68.568C763.807 68.136 764.599 67.92 765.463 67.92C766.243 67.92 766.921 68.076 767.497 68.388C768.085 68.688 768.553 69.066 768.901 69.522V68.082H770.971V78H768.901V76.524C768.553 76.992 768.079 77.382 767.479 77.694C766.879 78.006 766.195 78.162 765.427 78.162C764.575 78.162 763.795 77.946 763.087 77.514C762.379 77.07 761.815 76.458 761.395 75.678C760.987 74.886 760.783 73.992 760.783 72.996ZM768.901 73.032C768.901 72.348 768.757 71.754 768.469 71.25C768.193 70.746 767.827 70.362 767.371 70.098C766.915 69.834 766.423 69.702 765.895 69.702C765.367 69.702 764.875 69.834 764.419 70.098C763.963 70.35 763.591 70.728 763.303 71.232C763.027 71.724 762.889 72.312 762.889 72.996C762.889 73.68 763.027 74.28 763.303 74.796C763.591 75.312 763.963 75.708 764.419 75.984C764.887 76.248 765.379 76.38 765.895 76.38C766.423 76.38 766.915 76.248 767.371 75.984C767.827 75.72 768.193 75.336 768.469 74.832C768.757 74.316 768.901 73.716 768.901 73.032ZM774.71 66.768C774.338 66.768 774.026 66.642 773.774 66.39C773.522 66.138 773.396 65.826 773.396 65.454C773.396 65.082 773.522 64.77 773.774 64.518C774.026 64.266 774.338 64.14 774.71 64.14C775.07 64.14 775.376 64.266 775.628 64.518C775.88 64.77 776.006 65.082 776.006 65.454C776.006 65.826 775.88 66.138 775.628 66.39C775.376 66.642 775.07 66.768 774.71 66.768ZM775.718 68.082V78H773.666V68.082H775.718ZM586.402 96.558C586.75 96.078 587.224 95.688 587.824 95.388C588.436 95.076 589.114 94.92 589.858 94.92C590.734 94.92 591.526 95.13 592.234 95.55C592.942 95.97 593.5 96.57 593.908 97.35C594.316 98.118 594.52 99 594.52 99.996C594.52 100.992 594.316 101.886 593.908 102.678C593.5 103.458 592.936 104.07 592.216 104.514C591.508 104.946 590.722 105.162 589.858 105.162C589.09 105.162 588.406 105.012 587.806 104.712C587.218 104.412 586.75 104.028 586.402 103.56V105H584.35V91.68H586.402V96.558ZM592.432 99.996C592.432 99.312 592.288 98.724 592 98.232C591.724 97.728 591.352 97.35 590.884 97.098C590.428 96.834 589.936 96.702 589.408 96.702C588.892 96.702 588.4 96.834 587.932 97.098C587.476 97.362 587.104 97.746 586.816 98.25C586.54 98.754 586.402 99.348 586.402 100.032C586.402 100.716 586.54 101.316 586.816 101.832C587.104 102.336 587.476 102.72 587.932 102.984C588.4 103.248 588.892 103.38 589.408 103.38C589.936 103.38 590.428 103.248 590.884 102.984C591.352 102.708 591.724 102.312 592 101.796C592.288 101.28 592.432 100.68 592.432 99.996ZM605.639 99.798C605.639 100.17 605.615 100.506 605.567 100.806H597.989C598.049 101.598 598.343 102.234 598.871 102.714C599.399 103.194 600.047 103.434 600.815 103.434C601.919 103.434 602.699 102.972 603.155 102.048H605.369C605.069 102.96 604.523 103.71 603.731 104.298C602.951 104.874 601.979 105.162 600.815 105.162C599.867 105.162 599.015 104.952 598.259 104.532C597.515 104.1 596.927 103.5 596.495 102.732C596.075 101.952 595.865 101.052 595.865 100.032C595.865 99.012 596.069 98.118 596.477 97.35C596.897 96.57 597.479 95.97 598.223 95.55C598.979 95.13 599.843 94.92 600.815 94.92C601.751 94.92 602.585 95.124 603.317 95.532C604.049 95.94 604.619 96.516 605.027 97.26C605.435 97.992 605.639 98.838 605.639 99.798ZM603.497 99.15C603.485 98.394 603.215 97.788 602.687 97.332C602.159 96.876 601.505 96.648 600.725 96.648C600.017 96.648 599.411 96.876 598.907 97.332C598.403 97.776 598.103 98.382 598.007 99.15H603.497ZM609.711 96.522C610.011 96.018 610.407 95.628 610.899 95.352C611.403 95.064 611.997 94.92 612.681 94.92V97.044H612.159C611.355 97.044 610.743 97.248 610.323 97.656C609.915 98.064 609.711 98.772 609.711 99.78V105H607.659V95.082H609.711V96.522ZM615.611 93.768C615.239 93.768 614.927 93.642 614.675 93.39C614.423 93.138 614.297 92.826 614.297 92.454C614.297 92.082 614.423 91.77 614.675 91.518C614.927 91.266 615.239 91.14 615.611 91.14C615.971 91.14 616.277 91.266 616.529 91.518C616.781 91.77 616.907 92.082 616.907 92.454C616.907 92.826 616.781 93.138 616.529 93.39C616.277 93.642 615.971 93.768 615.611 93.768ZM616.619 95.082V105H614.567V95.082H616.619ZM623.237 100.05L627.809 105H625.037L621.365 100.734V105H619.313V91.68H621.365V99.42L624.965 95.082H627.809L623.237 100.05ZM638.262 95.082V105H636.21V103.83C635.886 104.238 635.46 104.562 634.932 104.802C634.416 105.03 633.864 105.144 633.276 105.144C632.496 105.144 631.794 104.982 631.17 104.658C630.558 104.334 630.072 103.854 629.712 103.218C629.364 102.582 629.19 101.814 629.19 100.914V95.082H631.224V100.608C631.224 101.496 631.446 102.18 631.89 102.66C632.334 103.128 632.94 103.362 633.708 103.362C634.476 103.362 635.082 103.128 635.526 102.66C635.982 102.18 636.21 101.496 636.21 100.608V95.082H638.262ZM643.363 96.756V102.246C643.363 102.618 643.447 102.888 643.615 103.056C643.795 103.212 644.095 103.29 644.515 103.29H645.775V105H644.155C643.231 105 642.523 104.784 642.031 104.352C641.539 103.92 641.293 103.218 641.293 102.246V96.756H640.123V95.082H641.293V92.616H643.363V95.082H645.775V96.756H643.363Z" fill="#FF0CD8"/>
<path d="M420.42 109V106.552H424.596V94.924H420.636V92.44H427.692V106.552H431.508V109H420.42ZM425.964 89.236C425.388 89.236 424.896 89.032 424.488 88.624C424.08 88.216 423.876 87.736 423.876 87.184C423.876 86.608 424.068 86.128 424.452 85.744C424.86 85.336 425.364 85.132 425.964 85.132C426.516 85.132 426.996 85.336 427.404 85.744C427.836 86.152 428.052 86.632 428.052 87.184C428.052 87.736 427.836 88.216 427.404 88.624C426.996 89.032 426.516 89.236 425.964 89.236ZM444.72 109.396C443.76 109.396 442.86 109.18 442.02 108.748C441.204 108.316 440.52 107.716 439.968 106.948L439.14 109H437.016V84.988H440.472V85.276C440.328 85.42 440.232 85.576 440.184 85.744C440.16 85.912 440.148 86.2 440.148 86.608V94.744C440.652 93.928 441.336 93.28 442.2 92.8C443.064 92.296 443.952 92.044 444.864 92.044C446.88 92.044 448.512 92.752 449.76 94.168C451.008 95.584 451.632 97.708 451.632 100.54C451.632 102.532 451.296 104.188 450.624 105.508C449.976 106.804 449.124 107.776 448.068 108.424C447.012 109.072 445.896 109.396 444.72 109.396ZM444.252 106.804C444.972 106.804 445.656 106.612 446.304 106.228C446.952 105.844 447.48 105.208 447.888 104.32C448.296 103.432 448.5 102.244 448.5 100.756C448.5 98.692 448.116 97.144 447.348 96.112C446.58 95.08 445.572 94.564 444.324 94.564C443.076 94.564 442.068 95.128 441.3 96.256C440.532 97.384 440.148 98.872 440.148 100.72C440.148 102.592 440.46 104.08 441.084 105.184C441.732 106.264 442.788 106.804 444.252 106.804ZM455.376 109V92.44H458.436V95.176C459.06 94.216 459.828 93.46 460.74 92.908C461.652 92.332 462.66 92.044 463.764 92.044C464.676 92.044 465.516 92.284 466.284 92.764C467.052 93.22 467.652 93.952 468.084 94.96C468.54 95.968 468.768 97.312 468.768 98.992V109H465.744V99.064C465.744 97.456 465.468 96.316 464.916 95.644C464.388 94.948 463.716 94.6 462.9 94.6C462.228 94.6 461.544 94.792 460.848 95.176C460.152 95.56 459.576 96.112 459.12 96.832C458.664 97.552 458.436 98.392 458.436 99.352V109H455.376ZM478.848 109.396C477.192 109.396 475.812 108.796 474.708 107.596C473.628 106.396 473.1 104.476 473.124 101.836L473.16 92.44H476.184V101.836C476.184 103.732 476.508 105.052 477.156 105.796C477.828 106.54 478.632 106.912 479.568 106.912C480.672 106.912 481.62 106.492 482.412 105.652C483.228 104.812 483.636 103.492 483.636 101.692V92.44H486.696V106.408C486.696 106.864 486.708 107.308 486.732 107.74C486.756 108.148 486.864 108.568 487.056 109H484.14C483.972 108.592 483.864 108.196 483.816 107.812C483.792 107.404 483.78 106.996 483.78 106.588C483.276 107.5 482.58 108.196 481.692 108.676C480.828 109.156 479.88 109.396 478.848 109.396Z" fill="white"/>
<path d="M73.376 109V92.44H76.436V95.176C77.06 94.216 77.828 93.46 78.74 92.908C79.652 92.332 80.66 92.044 81.764 92.044C82.676 92.044 83.516 92.284 84.284 92.764C85.052 93.22 85.652 93.952 86.084 94.96C86.54 95.968 86.768 97.312 86.768 98.992V109H83.744V99.064C83.744 97.456 83.468 96.316 82.916 95.644C82.388 94.948 81.716 94.6 80.9 94.6C80.228 94.6 79.544 94.792 78.848 95.176C78.152 95.56 77.576 96.112 77.12 96.832C76.664 97.552 76.436 98.392 76.436 99.352V109H73.376ZM96.452 109.396C94.58 109.396 93.14 108.976 92.132 108.136C91.124 107.272 90.62 106.168 90.62 104.824C90.62 103.648 90.98 102.616 91.7 101.728C92.444 100.84 93.464 100.156 94.76 99.676C96.056 99.196 97.556 98.956 99.26 98.956C99.668 98.956 100.124 98.968 100.628 98.992C101.132 98.992 101.66 99.016 102.212 99.064C102.068 97.336 101.6 96.16 100.808 95.536C100.04 94.888 98.96 94.564 97.568 94.564C96.776 94.564 96.008 94.708 95.264 94.996C94.544 95.284 93.86 95.74 93.212 96.364L91.628 94.456C92.468 93.64 93.404 93.04 94.436 92.656C95.492 92.272 96.596 92.08 97.748 92.08C99.188 92.08 100.46 92.32 101.564 92.8C102.668 93.256 103.532 94.06 104.156 95.212C104.78 96.364 105.092 97.948 105.092 99.964V109H101.816V106.732C101.192 107.812 100.376 108.532 99.368 108.892C98.384 109.228 97.412 109.396 96.452 109.396ZM93.68 104.536C93.68 105.496 93.98 106.156 94.58 106.516C95.204 106.852 95.972 107.02 96.884 107.02C98.492 107.02 99.752 106.54 100.664 105.58C101.6 104.62 102.128 103.204 102.248 101.332C101.264 101.236 100.304 101.188 99.368 101.188C97.568 101.188 96.164 101.464 95.156 102.016C94.172 102.568 93.68 103.408 93.68 104.536ZM108.26 109V92.44H110.996V93.952C111.38 93.352 111.86 92.884 112.436 92.548C113.012 92.212 113.6 92.044 114.2 92.044C114.872 92.044 115.472 92.248 116 92.656C116.552 93.064 116.912 93.628 117.08 94.348C117.416 93.628 117.908 93.064 118.556 92.656C119.204 92.248 119.936 92.044 120.752 92.044C121.904 92.044 122.744 92.452 123.272 93.268C123.8 94.084 124.04 95.152 123.992 96.472V109H121.22V97.408C121.22 96.496 121.16 95.824 121.04 95.392C120.944 94.936 120.788 94.648 120.572 94.528C120.38 94.384 120.14 94.312 119.852 94.312C119.444 94.312 119.06 94.504 118.7 94.888C118.34 95.248 118.04 95.728 117.8 96.328C117.584 96.904 117.476 97.516 117.476 98.164V109H114.776V97.588C114.776 96.292 114.656 95.428 114.416 94.996C114.2 94.564 113.792 94.348 113.192 94.348C112.688 94.348 112.196 94.672 111.716 95.32C111.26 95.944 111.032 96.844 111.032 98.02V109H108.26ZM132.452 109.396C130.58 109.396 129.14 108.976 128.132 108.136C127.124 107.272 126.62 106.168 126.62 104.824C126.62 103.648 126.98 102.616 127.7 101.728C128.444 100.84 129.464 100.156 130.76 99.676C132.056 99.196 133.556 98.956 135.26 98.956C135.668 98.956 136.124 98.968 136.628 98.992C137.132 98.992 137.66 99.016 138.212 99.064C138.068 97.336 137.6 96.16 136.808 95.536C136.04 94.888 134.96 94.564 133.568 94.564C132.776 94.564 132.008 94.708 131.264 94.996C130.544 95.284 129.86 95.74 129.212 96.364L127.628 94.456C128.468 93.64 129.404 93.04 130.436 92.656C131.492 92.272 132.596 92.08 133.748 92.08C135.188 92.08 136.46 92.32 137.564 92.8C138.668 93.256 139.532 94.06 140.156 95.212C140.78 96.364 141.092 97.948 141.092 99.964V109H137.816V106.732C137.192 107.812 136.376 108.532 135.368 108.892C134.384 109.228 133.412 109.396 132.452 109.396ZM129.68 104.536C129.68 105.496 129.98 106.156 130.58 106.516C131.204 106.852 131.972 107.02 132.884 107.02C134.492 107.02 135.752 106.54 136.664 105.58C137.6 104.62 138.128 103.204 138.248 101.332C137.264 101.236 136.304 101.188 135.368 101.188C133.568 101.188 132.164 101.464 131.156 102.016C130.172 102.568 129.68 103.408 129.68 104.536ZM168.452 109.396C166.58 109.396 165.14 108.976 164.132 108.136C163.124 107.272 162.62 106.168 162.62 104.824C162.62 103.648 162.98 102.616 163.7 101.728C164.444 100.84 165.464 100.156 166.76 99.676C168.056 99.196 169.556 98.956 171.26 98.956C171.668 98.956 172.124 98.968 172.628 98.992C173.132 98.992 173.66 99.016 174.212 99.064C174.068 97.336 173.6 96.16 172.808 95.536C172.04 94.888 170.96 94.564 169.568 94.564C168.776 94.564 168.008 94.708 167.264 94.996C166.544 95.284 165.86 95.74 165.212 96.364L163.628 94.456C164.468 93.64 165.404 93.04 166.436 92.656C167.492 92.272 168.596 92.08 169.748 92.08C171.188 92.08 172.46 92.32 173.564 92.8C174.668 93.256 175.532 94.06 176.156 95.212C176.78 96.364 177.092 97.948 177.092 99.964V109H173.816V106.732C173.192 107.812 172.376 108.532 171.368 108.892C170.384 109.228 169.412 109.396 168.452 109.396ZM165.68 104.536C165.68 105.496 165.98 106.156 166.58 106.516C167.204 106.852 167.972 107.02 168.884 107.02C170.492 107.02 171.752 106.54 172.664 105.58C173.6 104.62 174.128 103.204 174.248 101.332C173.264 101.236 172.304 101.188 171.368 101.188C169.568 101.188 168.164 101.464 167.156 102.016C166.172 102.568 165.68 103.408 165.68 104.536ZM181.376 109V92.44H184.436V95.176C185.06 94.216 185.828 93.46 186.74 92.908C187.652 92.332 188.66 92.044 189.764 92.044C190.676 92.044 191.516 92.284 192.284 92.764C193.052 93.22 193.652 93.952 194.084 94.96C194.54 95.968 194.768 97.312 194.768 98.992V109H191.744V99.064C191.744 97.456 191.468 96.316 190.916 95.644C190.388 94.948 189.716 94.6 188.9 94.6C188.228 94.6 187.544 94.792 186.848 95.176C186.152 95.56 185.576 96.112 185.12 96.832C184.664 97.552 184.436 98.392 184.436 99.352V109H181.376ZM205.316 109.36C204.164 109.36 203.06 109.048 202.004 108.424C200.972 107.776 200.12 106.804 199.448 105.508C198.8 104.188 198.476 102.544 198.476 100.576C198.476 98.608 198.812 97 199.484 95.752C200.156 94.48 201.02 93.544 202.076 92.944C203.132 92.32 204.248 92.008 205.424 92.008C206.456 92.008 207.368 92.236 208.16 92.692C208.952 93.148 209.552 93.772 209.96 94.564V84.988H213.236V85.276C213.092 85.42 212.996 85.576 212.948 85.744C212.924 85.912 212.912 86.2 212.912 86.608L212.948 106.552C212.948 106.96 212.96 107.368 212.984 107.776C213.032 108.184 213.14 108.592 213.308 109H210.284C210.092 108.592 209.984 108.208 209.96 107.848C209.936 107.488 209.924 107.104 209.924 106.696C209.42 107.536 208.772 108.196 207.98 108.676C207.212 109.132 206.324 109.36 205.316 109.36ZM205.82 106.768C207.26 106.768 208.28 106.204 208.88 105.076C209.504 103.924 209.816 102.448 209.816 100.648C209.816 98.8 209.48 97.312 208.808 96.184C208.136 95.056 207.08 94.492 205.64 94.492C204.296 94.492 203.264 95.02 202.544 96.076C201.848 97.132 201.5 98.536 201.5 100.288C201.5 102.256 201.884 103.828 202.652 105.004C203.42 106.18 204.476 106.768 205.82 106.768ZM222.452 109.396C220.58 109.396 219.14 108.976 218.132 108.136C217.124 107.272 216.62 106.168 216.62 104.824C216.62 103.648 216.98 102.616 217.7 101.728C218.444 100.84 219.464 100.156 220.76 99.676C222.056 99.196 223.556 98.956 225.26 98.956C225.668 98.956 226.124 98.968 226.628 98.992C227.132 98.992 227.66 99.016 228.212 99.064C228.068 97.336 227.6 96.16 226.808 95.536C226.04 94.888 224.96 94.564 223.568 94.564C222.776 94.564 222.008 94.708 221.264 94.996C220.544 95.284 219.86 95.74 219.212 96.364L217.628 94.456C218.468 93.64 219.404 93.04 220.436 92.656C221.492 92.272 222.596 92.08 223.748 92.08C225.188 92.08 226.46 92.32 227.564 92.8C228.668 93.256 229.532 94.06 230.156 95.212C230.78 96.364 231.092 97.948 231.092 99.964V109H227.816V106.732C227.192 107.812 226.376 108.532 225.368 108.892C224.384 109.228 223.412 109.396 222.452 109.396ZM219.68 104.536C219.68 105.496 219.98 106.156 220.58 106.516C221.204 106.852 221.972 107.02 222.884 107.02C224.492 107.02 225.752 106.54 226.664 105.58C227.6 104.62 228.128 103.204 228.248 101.332C227.264 101.236 226.304 101.188 225.368 101.188C223.568 101.188 222.164 101.464 221.156 102.016C220.172 102.568 219.68 103.408 219.68 104.536ZM258.452 109.396C256.58 109.396 255.14 108.976 254.132 108.136C253.124 107.272 252.62 106.168 252.62 104.824C252.62 103.648 252.98 102.616 253.7 101.728C254.444 100.84 255.464 100.156 256.76 99.676C258.056 99.196 259.556 98.956 261.26 98.956C261.668 98.956 262.124 98.968 262.628 98.992C263.132 98.992 263.66 99.016 264.212 99.064C264.068 97.336 263.6 96.16 262.808 95.536C262.04 94.888 260.96 94.564 259.568 94.564C258.776 94.564 258.008 94.708 257.264 94.996C256.544 95.284 255.86 95.74 255.212 96.364L253.628 94.456C254.468 93.64 255.404 93.04 256.436 92.656C257.492 92.272 258.596 92.08 259.748 92.08C261.188 92.08 262.46 92.32 263.564 92.8C264.668 93.256 265.532 94.06 266.156 95.212C266.78 96.364 267.092 97.948 267.092 99.964V109H263.816V106.732C263.192 107.812 262.376 108.532 261.368 108.892C260.384 109.228 259.412 109.396 258.452 109.396ZM255.68 104.536C255.68 105.496 255.98 106.156 256.58 106.516C257.204 106.852 257.972 107.02 258.884 107.02C260.492 107.02 261.752 106.54 262.664 105.58C263.6 104.62 264.128 103.204 264.248 101.332C263.264 101.236 262.304 101.188 261.368 101.188C259.568 101.188 258.164 101.464 257.156 102.016C256.172 102.568 255.68 103.408 255.68 104.536ZM277.316 109.36C276.164 109.36 275.06 109.048 274.004 108.424C272.972 107.776 272.12 106.804 271.448 105.508C270.8 104.188 270.476 102.544 270.476 100.576C270.476 98.608 270.812 97 271.484 95.752C272.156 94.48 273.02 93.544 274.076 92.944C275.132 92.32 276.248 92.008 277.424 92.008C278.456 92.008 279.368 92.236 280.16 92.692C280.952 93.148 281.552 93.772 281.96 94.564V84.988H285.236V85.276C285.092 85.42 284.996 85.576 284.948 85.744C284.924 85.912 284.912 86.2 284.912 86.608L284.948 106.552C284.948 106.96 284.96 107.368 284.984 107.776C285.032 108.184 285.14 108.592 285.308 109H282.284C282.092 108.592 281.984 108.208 281.96 107.848C281.936 107.488 281.924 107.104 281.924 106.696C281.42 107.536 280.772 108.196 279.98 108.676C279.212 109.132 278.324 109.36 277.316 109.36ZM277.82 106.768C279.26 106.768 280.28 106.204 280.88 105.076C281.504 103.924 281.816 102.448 281.816 100.648C281.816 98.8 281.48 97.312 280.808 96.184C280.136 95.056 279.08 94.492 277.64 94.492C276.296 94.492 275.264 95.02 274.544 96.076C273.848 97.132 273.5 98.536 273.5 100.288C273.5 102.256 273.884 103.828 274.652 105.004C275.42 106.18 276.476 106.768 277.82 106.768ZM294.452 109.396C292.58 109.396 291.14 108.976 290.132 108.136C289.124 107.272 288.62 106.168 288.62 104.824C288.62 103.648 288.98 102.616 289.7 101.728C290.444 100.84 291.464 100.156 292.76 99.676C294.056 99.196 295.556 98.956 297.26 98.956C297.668 98.956 298.124 98.968 298.628 98.992C299.132 98.992 299.66 99.016 300.212 99.064C300.068 97.336 299.6 96.16 298.808 95.536C298.04 94.888 296.96 94.564 295.568 94.564C294.776 94.564 294.008 94.708 293.264 94.996C292.544 95.284 291.86 95.74 291.212 96.364L289.628 94.456C290.468 93.64 291.404 93.04 292.436 92.656C293.492 92.272 294.596 92.08 295.748 92.08C297.188 92.08 298.46 92.32 299.564 92.8C300.668 93.256 301.532 94.06 302.156 95.212C302.78 96.364 303.092 97.948 303.092 99.964V109H299.816V106.732C299.192 107.812 298.376 108.532 297.368 108.892C296.384 109.228 295.412 109.396 294.452 109.396ZM291.68 104.536C291.68 105.496 291.98 106.156 292.58 106.516C293.204 106.852 293.972 107.02 294.884 107.02C296.492 107.02 297.752 106.54 298.664 105.58C299.6 104.62 300.128 103.204 300.248 101.332C299.264 101.236 298.304 101.188 297.368 101.188C295.568 101.188 294.164 101.464 293.156 102.016C292.172 102.568 291.68 103.408 291.68 104.536ZM307.664 109V106.552H312.452V87.436H307.88V84.988H315.584V106.552H320.372V109H307.664ZM330.452 109.396C328.58 109.396 327.14 108.976 326.132 108.136C325.124 107.272 324.62 106.168 324.62 104.824C324.62 103.648 324.98 102.616 325.7 101.728C326.444 100.84 327.464 100.156 328.76 99.676C330.056 99.196 331.556 98.956 333.26 98.956C333.668 98.956 334.124 98.968 334.628 98.992C335.132 98.992 335.66 99.016 336.212 99.064C336.068 97.336 335.6 96.16 334.808 95.536C334.04 94.888 332.96 94.564 331.568 94.564C330.776 94.564 330.008 94.708 329.264 94.996C328.544 95.284 327.86 95.74 327.212 96.364L325.628 94.456C326.468 93.64 327.404 93.04 328.436 92.656C329.492 92.272 330.596 92.08 331.748 92.08C333.188 92.08 334.46 92.32 335.564 92.8C336.668 93.256 337.532 94.06 338.156 95.212C338.78 96.364 339.092 97.948 339.092 99.964V109H335.816V106.732C335.192 107.812 334.376 108.532 333.368 108.892C332.384 109.228 331.412 109.396 330.452 109.396ZM327.68 104.536C327.68 105.496 327.98 106.156 328.58 106.516C329.204 106.852 329.972 107.02 330.884 107.02C332.492 107.02 333.752 106.54 334.664 105.58C335.6 104.62 336.128 103.204 336.248 101.332C335.264 101.236 334.304 101.188 333.368 101.188C331.568 101.188 330.164 101.464 329.156 102.016C328.172 102.568 327.68 103.408 327.68 104.536ZM343.412 84.988H346.76V85.276C346.64 85.42 346.556 85.576 346.508 85.744C346.484 85.912 346.472 86.2 346.472 86.608V95.14C347.096 94.18 347.876 93.424 348.812 92.872C349.772 92.32 350.732 92.044 351.692 92.044C353.204 92.044 354.428 92.584 355.364 93.664C356.324 94.72 356.804 96.496 356.804 98.992V109H353.78V99.064C353.78 97.408 353.504 96.256 352.952 95.608C352.424 94.936 351.764 94.6 350.972 94.6C350.252 94.6 349.544 94.804 348.848 95.212C348.152 95.596 347.576 96.148 347.12 96.868C346.688 97.588 346.472 98.464 346.472 99.496V109H343.412V84.988ZM385.532 98.128C384.908 98.128 384.368 97.9 383.912 97.444C383.456 96.988 383.228 96.46 383.228 95.86C383.228 95.236 383.456 94.696 383.912 94.24C384.368 93.784 384.908 93.556 385.532 93.556C386.132 93.556 386.672 93.784 387.152 94.24C387.632 94.672 387.872 95.212 387.872 95.86C387.872 96.46 387.644 96.988 387.188 97.444C386.732 97.9 386.18 98.128 385.532 98.128ZM385.532 109.396C384.884 109.396 384.332 109.18 383.876 108.748C383.444 108.292 383.228 107.752 383.228 107.128C383.228 106.504 383.456 105.964 383.912 105.508C384.368 105.052 384.908 104.824 385.532 104.824C386.132 104.824 386.672 105.052 387.152 105.508C387.632 105.964 387.872 106.504 387.872 107.128C387.872 107.752 387.644 108.292 387.188 108.748C386.732 109.18 386.18 109.396 385.532 109.396Z" fill="white"/>
</svg>
