<svg width="807" height="186" viewBox="0 0 807 186" fill="none" xmlns="http://www.w3.org/2000/svg">
<rect width="807" height="186" fill="#02031B"/>
<rect x="429" y="60" width="126" height="66" stroke="#FF0CD8" stroke-width="2"/>
<path d="M486 52V28H611" stroke="#FF0CD8" stroke-width="2" stroke-linecap="round" stroke-linejoin="round"/>
<path d="M596.394 36.768C596.022 36.768 595.71 36.642 595.458 36.39C595.206 36.138 595.08 35.826 595.08 35.454C595.08 35.082 595.206 34.77 595.458 34.518C595.71 34.266 596.022 34.14 596.394 34.14C596.754 34.14 597.06 34.266 597.312 34.518C597.564 34.77 597.69 35.082 597.69 35.454C597.69 35.826 597.564 36.138 597.312 36.39C597.06 36.642 596.754 36.768 596.394 36.768ZM597.402 38.082V48H595.35V38.082H597.402ZM605.1 37.92C605.88 37.92 606.576 38.082 607.188 38.406C607.812 38.73 608.298 39.21 608.646 39.846C608.994 40.482 609.168 41.25 609.168 42.15V48H607.134V42.456C607.134 41.568 606.912 40.89 606.468 40.422C606.024 39.942 605.418 39.702 604.65 39.702C603.882 39.702 603.27 39.942 602.814 40.422C602.37 40.89 602.148 41.568 602.148 42.456V48H600.096V38.082H602.148V39.216C602.484 38.808 602.91 38.49 603.426 38.262C603.954 38.034 604.512 37.92 605.1 37.92ZM612.83 36.768C612.458 36.768 612.146 36.642 611.894 36.39C611.642 36.138 611.516 35.826 611.516 35.454C611.516 35.082 611.642 34.77 611.894 34.518C612.146 34.266 612.458 34.14 612.83 34.14C613.19 34.14 613.496 34.266 613.748 34.518C614 34.77 614.126 35.082 614.126 35.454C614.126 35.826 614 36.138 613.748 36.39C613.496 36.642 613.19 36.768 612.83 36.768ZM613.838 38.082V48H611.786V38.082H613.838ZM620.523 42.996C620.523 42 620.727 41.118 621.135 40.35C621.555 39.582 622.119 38.988 622.827 38.568C623.547 38.136 624.339 37.92 625.203 37.92C625.983 37.92 626.661 38.076 627.237 38.388C627.825 38.688 628.293 39.066 628.641 39.522V38.082H630.711V48H628.641V46.524C628.293 46.992 627.819 47.382 627.219 47.694C626.619 48.006 625.935 48.162 625.167 48.162C624.315 48.162 623.535 47.946 622.827 47.514C622.119 47.07 621.555 46.458 621.135 45.678C620.727 44.886 620.523 43.992 620.523 42.996ZM628.641 43.032C628.641 42.348 628.497 41.754 628.209 41.25C627.933 40.746 627.567 40.362 627.111 40.098C626.655 39.834 626.163 39.702 625.635 39.702C625.107 39.702 624.615 39.834 624.159 40.098C623.703 40.35 623.331 40.728 623.043 41.232C622.767 41.724 622.629 42.312 622.629 42.996C622.629 43.68 622.767 44.28 623.043 44.796C623.331 45.312 623.703 45.708 624.159 45.984C624.627 46.248 625.119 46.38 625.635 46.38C626.163 46.38 626.655 46.248 627.111 45.984C627.567 45.72 627.933 45.336 628.209 44.832C628.497 44.316 628.641 43.716 628.641 43.032ZM632.723 42.996C632.723 42 632.927 41.118 633.335 40.35C633.755 39.582 634.319 38.988 635.027 38.568C635.747 38.136 636.545 37.92 637.421 37.92C638.069 37.92 638.705 38.064 639.329 38.352C639.965 38.628 640.469 39 640.841 39.468V34.68H642.911V48H640.841V46.506C640.505 46.986 640.037 47.382 639.437 47.694C638.849 48.006 638.171 48.162 637.403 48.162C636.539 48.162 635.747 47.946 635.027 47.514C634.319 47.07 633.755 46.458 633.335 45.678C632.927 44.886 632.723 43.992 632.723 42.996ZM640.841 43.032C640.841 42.348 640.697 41.754 640.409 41.25C640.133 40.746 639.767 40.362 639.311 40.098C638.855 39.834 638.363 39.702 637.835 39.702C637.307 39.702 636.815 39.834 636.359 40.098C635.903 40.35 635.531 40.728 635.243 41.232C634.967 41.724 634.829 42.312 634.829 42.996C634.829 43.68 634.967 44.28 635.243 44.796C635.531 45.312 635.903 45.708 636.359 45.984C636.827 46.248 637.319 46.38 637.835 46.38C638.363 46.38 638.855 46.248 639.311 45.984C639.767 45.72 640.133 45.336 640.409 44.832C640.697 44.316 640.841 43.716 640.841 43.032ZM644.922 42.996C644.922 42 645.126 41.118 645.534 40.35C645.954 39.582 646.518 38.988 647.226 38.568C647.946 38.136 648.738 37.92 649.602 37.92C650.382 37.92 651.06 38.076 651.636 38.388C652.224 38.688 652.692 39.066 653.04 39.522V38.082H655.11V48H653.04V46.524C652.692 46.992 652.218 47.382 651.618 47.694C651.018 48.006 650.334 48.162 649.566 48.162C648.714 48.162 647.934 47.946 647.226 47.514C646.518 47.07 645.954 46.458 645.534 45.678C645.126 44.886 644.922 43.992 644.922 42.996ZM653.04 43.032C653.04 42.348 652.896 41.754 652.608 41.25C652.332 40.746 651.966 40.362 651.51 40.098C651.054 39.834 650.562 39.702 650.034 39.702C649.506 39.702 649.014 39.834 648.558 40.098C648.102 40.35 647.73 40.728 647.442 41.232C647.166 41.724 647.028 42.312 647.028 42.996C647.028 43.68 647.166 44.28 647.442 44.796C647.73 45.312 648.102 45.708 648.558 45.984C649.026 46.248 649.518 46.38 650.034 46.38C650.562 46.38 651.054 46.248 651.51 45.984C651.966 45.72 652.332 45.336 652.608 44.832C652.896 44.316 653.04 43.716 653.04 43.032ZM659.857 34.68V48H657.805V34.68H659.857ZM661.867 42.996C661.867 42 662.071 41.118 662.479 40.35C662.899 39.582 663.463 38.988 664.171 38.568C664.891 38.136 665.683 37.92 666.547 37.92C667.327 37.92 668.005 38.076 668.581 38.388C669.169 38.688 669.637 39.066 669.985 39.522V38.082H672.055V48H669.985V46.524C669.637 46.992 669.163 47.382 668.563 47.694C667.963 48.006 667.279 48.162 666.511 48.162C665.659 48.162 664.879 47.946 664.171 47.514C663.463 47.07 662.899 46.458 662.479 45.678C662.071 44.886 661.867 43.992 661.867 42.996ZM669.985 43.032C669.985 42.348 669.841 41.754 669.553 41.25C669.277 40.746 668.911 40.362 668.455 40.098C667.999 39.834 667.507 39.702 666.979 39.702C666.451 39.702 665.959 39.834 665.503 40.098C665.047 40.35 664.675 40.728 664.387 41.232C664.111 41.724 663.973 42.312 663.973 42.996C663.973 43.68 664.111 44.28 664.387 44.796C664.675 45.312 665.047 45.708 665.503 45.984C665.971 46.248 666.463 46.38 666.979 46.38C667.507 46.38 667.999 46.248 668.455 45.984C668.911 45.72 669.277 45.336 669.553 44.832C669.841 44.316 669.985 43.716 669.985 43.032ZM679.88 37.92C680.636 37.92 681.308 38.082 681.896 38.406C682.496 38.73 682.964 39.21 683.3 39.846C683.648 40.482 683.822 41.25 683.822 42.15V48H681.788V42.456C681.788 41.568 681.566 40.89 681.122 40.422C680.678 39.942 680.072 39.702 679.304 39.702C678.536 39.702 677.924 39.942 677.468 40.422C677.024 40.89 676.802 41.568 676.802 42.456V48H674.75V34.68H676.802V39.234C677.15 38.814 677.588 38.49 678.116 38.262C678.656 38.034 679.244 37.92 679.88 37.92ZM696.12 37.92C696.9 37.92 697.596 38.082 698.208 38.406C698.832 38.73 699.318 39.21 699.666 39.846C700.014 40.482 700.188 41.25 700.188 42.15V48H698.154V42.456C698.154 41.568 697.932 40.89 697.488 40.422C697.044 39.942 696.438 39.702 695.67 39.702C694.902 39.702 694.29 39.942 693.834 40.422C693.39 40.89 693.168 41.568 693.168 42.456V48H691.116V38.082H693.168V39.216C693.504 38.808 693.93 38.49 694.446 38.262C694.974 38.034 695.532 37.92 696.12 37.92ZM703.849 36.768C703.477 36.768 703.165 36.642 702.913 36.39C702.661 36.138 702.535 35.826 702.535 35.454C702.535 35.082 702.661 34.77 702.913 34.518C703.165 34.266 703.477 34.14 703.849 34.14C704.209 34.14 704.515 34.266 704.767 34.518C705.019 34.77 705.145 35.082 705.145 35.454C705.145 35.826 705.019 36.138 704.767 36.39C704.515 36.642 704.209 36.768 703.849 36.768ZM704.857 38.082V48H702.805V38.082H704.857ZM709.603 34.68V48H707.551V34.68H709.603ZM711.613 42.996C711.613 42 711.817 41.118 712.225 40.35C712.645 39.582 713.209 38.988 713.917 38.568C714.637 38.136 715.429 37.92 716.293 37.92C717.073 37.92 717.751 38.076 718.327 38.388C718.915 38.688 719.383 39.066 719.731 39.522V38.082H721.801V48H719.731V46.524C719.383 46.992 718.909 47.382 718.309 47.694C717.709 48.006 717.025 48.162 716.257 48.162C715.405 48.162 714.625 47.946 713.917 47.514C713.209 47.07 712.645 46.458 712.225 45.678C711.817 44.886 711.613 43.992 711.613 42.996ZM719.731 43.032C719.731 42.348 719.587 41.754 719.299 41.25C719.023 40.746 718.657 40.362 718.201 40.098C717.745 39.834 717.253 39.702 716.725 39.702C716.197 39.702 715.705 39.834 715.249 40.098C714.793 40.35 714.421 40.728 714.133 41.232C713.857 41.724 713.719 42.312 713.719 42.996C713.719 43.68 713.857 44.28 714.133 44.796C714.421 45.312 714.793 45.708 715.249 45.984C715.717 46.248 716.209 46.38 716.725 46.38C717.253 46.38 717.745 46.248 718.201 45.984C718.657 45.72 719.023 45.336 719.299 44.832C719.587 44.316 719.731 43.716 719.731 43.032ZM725.54 36.768C725.168 36.768 724.856 36.642 724.604 36.39C724.352 36.138 724.226 35.826 724.226 35.454C724.226 35.082 724.352 34.77 724.604 34.518C724.856 34.266 725.168 34.14 725.54 34.14C725.9 34.14 726.206 34.266 726.458 34.518C726.71 34.77 726.836 35.082 726.836 35.454C726.836 35.826 726.71 36.138 726.458 36.39C726.206 36.642 725.9 36.768 725.54 36.768ZM726.548 38.082V48H724.496V38.082H726.548ZM742.846 38.082L736.762 52.662H734.638L736.654 47.838L732.748 38.082H735.034L737.824 45.642L740.722 38.082H742.846ZM743.711 42.996C743.711 42 743.915 41.118 744.323 40.35C744.743 39.582 745.307 38.988 746.015 38.568C746.735 38.136 747.527 37.92 748.391 37.92C749.171 37.92 749.849 38.076 750.425 38.388C751.013 38.688 751.481 39.066 751.829 39.522V38.082H753.899V48H751.829V46.524C751.481 46.992 751.007 47.382 750.407 47.694C749.807 48.006 749.123 48.162 748.355 48.162C747.503 48.162 746.723 47.946 746.015 47.514C745.307 47.07 744.743 46.458 744.323 45.678C743.915 44.886 743.711 43.992 743.711 42.996ZM751.829 43.032C751.829 42.348 751.685 41.754 751.397 41.25C751.121 40.746 750.755 40.362 750.299 40.098C749.843 39.834 749.351 39.702 748.823 39.702C748.295 39.702 747.803 39.834 747.347 40.098C746.891 40.35 746.519 40.728 746.231 41.232C745.955 41.724 745.817 42.312 745.817 42.996C745.817 43.68 745.955 44.28 746.231 44.796C746.519 45.312 746.891 45.708 747.347 45.984C747.815 46.248 748.307 46.38 748.823 46.38C749.351 46.38 749.843 46.248 750.299 45.984C750.755 45.72 751.121 45.336 751.397 44.832C751.685 44.316 751.829 43.716 751.829 43.032ZM761.598 37.92C762.378 37.92 763.074 38.082 763.686 38.406C764.31 38.73 764.796 39.21 765.144 39.846C765.492 40.482 765.666 41.25 765.666 42.15V48H763.632V42.456C763.632 41.568 763.41 40.89 762.966 40.422C762.522 39.942 761.916 39.702 761.148 39.702C760.38 39.702 759.768 39.942 759.312 40.422C758.868 40.89 758.646 41.568 758.646 42.456V48H756.594V38.082H758.646V39.216C758.982 38.808 759.408 38.49 759.924 38.262C760.452 38.034 761.01 37.92 761.598 37.92ZM772.28 37.92C773.048 37.92 773.726 38.076 774.314 38.388C774.914 38.688 775.382 39.066 775.718 39.522V38.082H777.788V48.162C777.788 49.074 777.596 49.884 777.212 50.592C776.828 51.312 776.27 51.876 775.538 52.284C774.818 52.692 773.954 52.896 772.946 52.896C771.602 52.896 770.486 52.578 769.598 51.942C768.71 51.318 768.206 50.466 768.086 49.386H770.12C770.276 49.902 770.606 50.316 771.11 50.628C771.626 50.952 772.238 51.114 772.946 51.114C773.774 51.114 774.44 50.862 774.944 50.358C775.46 49.854 775.718 49.122 775.718 48.162V46.506C775.37 46.974 774.896 47.37 774.296 47.694C773.708 48.006 773.036 48.162 772.28 48.162C771.416 48.162 770.624 47.946 769.904 47.514C769.196 47.07 768.632 46.458 768.212 45.678C767.804 44.886 767.6 43.992 767.6 42.996C767.6 42 767.804 41.118 768.212 40.35C768.632 39.582 769.196 38.988 769.904 38.568C770.624 38.136 771.416 37.92 772.28 37.92ZM775.718 43.032C775.718 42.348 775.574 41.754 775.286 41.25C775.01 40.746 774.644 40.362 774.188 40.098C773.732 39.834 773.24 39.702 772.712 39.702C772.184 39.702 771.692 39.834 771.236 40.098C770.78 40.35 770.408 40.728 770.12 41.232C769.844 41.724 769.706 42.312 769.706 42.996C769.706 43.68 769.844 44.28 770.12 44.796C770.408 45.312 770.78 45.708 771.236 45.984C771.704 46.248 772.196 46.38 772.712 46.38C773.24 46.38 773.732 46.248 774.188 45.984C774.644 45.72 775.01 45.336 775.286 44.832C775.574 44.316 775.718 43.716 775.718 43.032ZM604.332 65.082V75H602.28V73.83C601.956 74.238 601.53 74.562 601.002 74.802C600.486 75.03 599.934 75.144 599.346 75.144C598.566 75.144 597.864 74.982 597.24 74.658C596.628 74.334 596.142 73.854 595.782 73.218C595.434 72.582 595.26 71.814 595.26 70.914V65.082H597.294V70.608C597.294 71.496 597.516 72.18 597.96 72.66C598.404 73.128 599.01 73.362 599.778 73.362C600.546 73.362 601.152 73.128 601.596 72.66C602.052 72.18 602.28 71.496 602.28 70.608V65.082H604.332ZM610.639 75.162C609.859 75.162 609.157 75.024 608.533 74.748C607.921 74.46 607.435 74.076 607.075 73.596C606.715 73.104 606.523 72.558 606.499 71.958H608.623C608.659 72.378 608.857 72.732 609.217 73.02C609.589 73.296 610.051 73.434 610.603 73.434C611.179 73.434 611.623 73.326 611.935 73.11C612.259 72.882 612.421 72.594 612.421 72.246C612.421 71.874 612.241 71.598 611.881 71.418C611.533 71.238 610.975 71.04 610.207 70.824C609.463 70.62 608.857 70.422 608.389 70.23C607.921 70.038 607.513 69.744 607.165 69.348C606.829 68.952 606.661 68.43 606.661 67.782C606.661 67.254 606.817 66.774 607.129 66.342C607.441 65.898 607.885 65.55 608.461 65.298C609.049 65.046 609.721 64.92 610.477 64.92C611.605 64.92 612.511 65.208 613.195 65.784C613.891 66.348 614.263 67.122 614.311 68.106H612.259C612.223 67.662 612.043 67.308 611.719 67.044C611.395 66.78 610.957 66.648 610.405 66.648C609.865 66.648 609.451 66.75 609.163 66.954C608.875 67.158 608.731 67.428 608.731 67.764C608.731 68.028 608.827 68.25 609.019 68.43C609.211 68.61 609.445 68.754 609.721 68.862C609.997 68.958 610.405 69.084 610.945 69.24C611.665 69.432 612.253 69.63 612.709 69.834C613.177 70.026 613.579 70.314 613.915 70.698C614.251 71.082 614.425 71.592 614.437 72.228C614.437 72.792 614.281 73.296 613.969 73.74C613.657 74.184 613.213 74.532 612.637 74.784C612.073 75.036 611.407 75.162 610.639 75.162ZM625.745 69.798C625.745 70.17 625.721 70.506 625.673 70.806H618.095C618.155 71.598 618.449 72.234 618.977 72.714C619.505 73.194 620.153 73.434 620.921 73.434C622.025 73.434 622.805 72.972 623.261 72.048H625.475C625.175 72.96 624.629 73.71 623.837 74.298C623.057 74.874 622.085 75.162 620.921 75.162C619.973 75.162 619.121 74.952 618.365 74.532C617.621 74.1 617.033 73.5 616.601 72.732C616.181 71.952 615.971 71.052 615.971 70.032C615.971 69.012 616.175 68.118 616.583 67.35C617.003 66.57 617.585 65.97 618.329 65.55C619.085 65.13 619.949 64.92 620.921 64.92C621.857 64.92 622.691 65.124 623.423 65.532C624.155 65.94 624.725 66.516 625.133 67.26C625.541 67.992 625.745 68.838 625.745 69.798ZM623.603 69.15C623.591 68.394 623.321 67.788 622.793 67.332C622.265 66.876 621.611 66.648 620.831 66.648C620.123 66.648 619.517 66.876 619.013 67.332C618.509 67.776 618.209 68.382 618.113 69.15H623.603ZM629.816 66.522C630.116 66.018 630.512 65.628 631.004 65.352C631.508 65.064 632.102 64.92 632.786 64.92V67.044H632.264C631.46 67.044 630.848 67.248 630.428 67.656C630.02 68.064 629.816 68.772 629.816 69.78V75H627.764V65.082H629.816V66.522ZM640.392 63.768C640.02 63.768 639.708 63.642 639.456 63.39C639.204 63.138 639.078 62.826 639.078 62.454C639.078 62.082 639.204 61.77 639.456 61.518C639.708 61.266 640.02 61.14 640.392 61.14C640.752 61.14 641.058 61.266 641.31 61.518C641.562 61.77 641.688 62.082 641.688 62.454C641.688 62.826 641.562 63.138 641.31 63.39C641.058 63.642 640.752 63.768 640.392 63.768ZM641.4 65.082V75H639.348V65.082H641.4ZM649.098 64.92C649.878 64.92 650.574 65.082 651.186 65.406C651.81 65.73 652.296 66.21 652.644 66.846C652.992 67.482 653.166 68.25 653.166 69.15V75H651.132V69.456C651.132 68.568 650.91 67.89 650.466 67.422C650.022 66.942 649.416 66.702 648.648 66.702C647.88 66.702 647.268 66.942 646.812 67.422C646.368 67.89 646.146 68.568 646.146 69.456V75H644.094V65.082H646.146V66.216C646.482 65.808 646.908 65.49 647.424 65.262C647.952 65.034 648.51 64.92 649.098 64.92ZM657.836 66.54C658.184 66.084 658.658 65.7 659.258 65.388C659.858 65.076 660.536 64.92 661.292 64.92C662.156 64.92 662.942 65.136 663.65 65.568C664.37 65.988 664.934 66.582 665.342 67.35C665.75 68.118 665.954 69 665.954 69.996C665.954 70.992 665.75 71.886 665.342 72.678C664.934 73.458 664.37 74.07 663.65 74.514C662.942 74.946 662.156 75.162 661.292 75.162C660.536 75.162 659.864 75.012 659.276 74.712C658.688 74.4 658.208 74.016 657.836 73.56V79.716H655.784V65.082H657.836V66.54ZM663.866 69.996C663.866 69.312 663.722 68.724 663.434 68.232C663.158 67.728 662.786 67.35 662.318 67.098C661.862 66.834 661.37 66.702 660.842 66.702C660.326 66.702 659.834 66.834 659.366 67.098C658.91 67.362 658.538 67.746 658.25 68.25C657.974 68.754 657.836 69.348 657.836 70.032C657.836 70.716 657.974 71.316 658.25 71.832C658.538 72.336 658.91 72.72 659.366 72.984C659.834 73.248 660.326 73.38 660.842 73.38C661.37 73.38 661.862 73.248 662.318 72.984C662.786 72.708 663.158 72.312 663.434 71.796C663.722 71.28 663.866 70.68 663.866 69.996ZM676.965 65.082V75H674.913V73.83C674.589 74.238 674.163 74.562 673.635 74.802C673.119 75.03 672.567 75.144 671.979 75.144C671.199 75.144 670.497 74.982 669.873 74.658C669.261 74.334 668.775 73.854 668.415 73.218C668.067 72.582 667.893 71.814 667.893 70.914V65.082H669.927V70.608C669.927 71.496 670.149 72.18 670.593 72.66C671.037 73.128 671.643 73.362 672.411 73.362C673.179 73.362 673.785 73.128 674.229 72.66C674.685 72.18 674.913 71.496 674.913 70.608V65.082H676.965ZM682.066 66.756V72.246C682.066 72.618 682.15 72.888 682.318 73.056C682.498 73.212 682.798 73.29 683.218 73.29H684.478V75H682.858C681.934 75 681.226 74.784 680.734 74.352C680.242 73.92 679.996 73.218 679.996 72.246V66.756H678.826V65.082H679.996V62.616H682.066V65.082H684.478V66.756H682.066ZM685.686 69.996C685.686 69 685.89 68.118 686.298 67.35C686.718 66.582 687.282 65.988 687.99 65.568C688.71 65.136 689.502 64.92 690.366 64.92C691.146 64.92 691.824 65.076 692.4 65.388C692.988 65.688 693.456 66.066 693.804 66.522V65.082H695.874V75H693.804V73.524C693.456 73.992 692.982 74.382 692.382 74.694C691.782 75.006 691.098 75.162 690.33 75.162C689.478 75.162 688.698 74.946 687.99 74.514C687.282 74.07 686.718 73.458 686.298 72.678C685.89 71.886 685.686 70.992 685.686 69.996ZM693.804 70.032C693.804 69.348 693.66 68.754 693.372 68.25C693.096 67.746 692.73 67.362 692.274 67.098C691.818 66.834 691.326 66.702 690.798 66.702C690.27 66.702 689.778 66.834 689.322 67.098C688.866 67.35 688.494 67.728 688.206 68.232C687.93 68.724 687.792 69.312 687.792 69.996C687.792 70.68 687.93 71.28 688.206 71.796C688.494 72.312 688.866 72.708 689.322 72.984C689.79 73.248 690.282 73.38 690.798 73.38C691.326 73.38 691.818 73.248 692.274 72.984C692.73 72.72 693.096 72.336 693.372 71.832C693.66 71.316 693.804 70.716 693.804 70.032ZM702.493 70.05L707.065 75H704.293L700.621 70.734V75H698.569V61.68H700.621V69.42L704.221 65.082H707.065L702.493 70.05ZM707.852 69.996C707.852 69 708.056 68.118 708.464 67.35C708.884 66.582 709.448 65.988 710.156 65.568C710.876 65.136 711.668 64.92 712.532 64.92C713.312 64.92 713.99 65.076 714.566 65.388C715.154 65.688 715.622 66.066 715.97 66.522V65.082H718.04V75H715.97V73.524C715.622 73.992 715.148 74.382 714.548 74.694C713.948 75.006 713.264 75.162 712.496 75.162C711.644 75.162 710.864 74.946 710.156 74.514C709.448 74.07 708.884 73.458 708.464 72.678C708.056 71.886 707.852 70.992 707.852 69.996ZM715.97 70.032C715.97 69.348 715.826 68.754 715.538 68.25C715.262 67.746 714.896 67.362 714.44 67.098C713.984 66.834 713.492 66.702 712.964 66.702C712.436 66.702 711.944 66.834 711.488 67.098C711.032 67.35 710.66 67.728 710.372 68.232C710.096 68.724 709.958 69.312 709.958 69.996C709.958 70.68 710.096 71.28 710.372 71.796C710.66 72.312 711.032 72.708 711.488 72.984C711.956 73.248 712.448 73.38 712.964 73.38C713.492 73.38 713.984 73.248 714.44 72.984C714.896 72.72 715.262 72.336 715.538 71.832C715.826 71.316 715.97 70.716 715.97 70.032ZM725.739 64.92C726.519 64.92 727.215 65.082 727.827 65.406C728.451 65.73 728.937 66.21 729.285 66.846C729.633 67.482 729.807 68.25 729.807 69.15V75H727.773V69.456C727.773 68.568 727.551 67.89 727.107 67.422C726.663 66.942 726.057 66.702 725.289 66.702C724.521 66.702 723.909 66.942 723.453 67.422C723.009 67.89 722.787 68.568 722.787 69.456V75H720.735V65.082H722.787V66.216C723.123 65.808 723.549 65.49 724.065 65.262C724.593 65.034 725.151 64.92 725.739 64.92Z" fill="#FF0CD8"/>
<path d="M72.26 105V88.44H74.996V89.952C75.38 89.352 75.86 88.884 76.436 88.548C77.012 88.212 77.6 88.044 78.2 88.044C78.872 88.044 79.472 88.248 80 88.656C80.552 89.064 80.912 89.628 81.08 90.348C81.416 89.628 81.908 89.064 82.556 88.656C83.204 88.248 83.936 88.044 84.752 88.044C85.904 88.044 86.744 88.452 87.272 89.268C87.8 90.084 88.04 91.152 87.992 92.472V105H85.22V93.408C85.22 92.496 85.16 91.824 85.04 91.392C84.944 90.936 84.788 90.648 84.572 90.528C84.38 90.384 84.14 90.312 83.852 90.312C83.444 90.312 83.06 90.504 82.7 90.888C82.34 91.248 82.04 91.728 81.8 92.328C81.584 92.904 81.476 93.516 81.476 94.164V105H78.776V93.588C78.776 92.292 78.656 91.428 78.416 90.996C78.2 90.564 77.792 90.348 77.192 90.348C76.688 90.348 76.196 90.672 75.716 91.32C75.26 91.944 75.032 92.844 75.032 94.02V105H72.26ZM96.452 105.396C94.58 105.396 93.14 104.976 92.132 104.136C91.124 103.272 90.62 102.168 90.62 100.824C90.62 99.648 90.98 98.616 91.7 97.728C92.444 96.84 93.464 96.156 94.76 95.676C96.056 95.196 97.556 94.956 99.26 94.956C99.668 94.956 100.124 94.968 100.628 94.992C101.132 94.992 101.66 95.016 102.212 95.064C102.068 93.336 101.6 92.16 100.808 91.536C100.04 90.888 98.96 90.564 97.568 90.564C96.776 90.564 96.008 90.708 95.264 90.996C94.544 91.284 93.86 91.74 93.212 92.364L91.628 90.456C92.468 89.64 93.404 89.04 94.436 88.656C95.492 88.272 96.596 88.08 97.748 88.08C99.188 88.08 100.46 88.32 101.564 88.8C102.668 89.256 103.532 90.06 104.156 91.212C104.78 92.364 105.092 93.948 105.092 95.964V105H101.816V102.732C101.192 103.812 100.376 104.532 99.368 104.892C98.384 105.228 97.412 105.396 96.452 105.396ZM93.68 100.536C93.68 101.496 93.98 102.156 94.58 102.516C95.204 102.852 95.972 103.02 96.884 103.02C98.492 103.02 99.752 102.54 100.664 101.58C101.6 100.62 102.128 99.204 102.248 97.332C101.264 97.236 100.304 97.188 99.368 97.188C97.568 97.188 96.164 97.464 95.156 98.016C94.172 98.568 93.68 99.408 93.68 100.536ZM116.144 105.36C114.704 105.36 113.372 105.156 112.148 104.748C110.948 104.316 109.868 103.656 108.908 102.768L110.456 100.032L110.672 99.708L110.888 99.852C110.936 100.044 110.996 100.248 111.068 100.464C111.14 100.656 111.308 100.896 111.572 101.184C112.124 101.688 112.76 102.096 113.48 102.408C114.2 102.72 115.112 102.876 116.216 102.876C117.416 102.876 118.352 102.66 119.024 102.228C119.696 101.796 120.032 101.22 120.032 100.5C120.032 99.852 119.72 99.324 119.096 98.916C118.496 98.484 117.452 98.04 115.964 97.584C114.092 97.056 112.604 96.384 111.5 95.568C110.396 94.752 109.844 93.708 109.844 92.436C109.844 91.14 110.384 90.084 111.464 89.268C112.544 88.452 114.08 88.044 116.072 88.044C117.56 88.044 118.82 88.26 119.852 88.692C120.908 89.124 121.856 89.772 122.696 90.636L121.04 92.76L120.788 93.048L120.608 92.868C120.584 92.676 120.524 92.496 120.428 92.328C120.356 92.136 120.176 91.908 119.888 91.644C119.36 91.236 118.76 90.924 118.088 90.708C117.44 90.492 116.792 90.384 116.144 90.384C115.232 90.384 114.44 90.552 113.768 90.888C113.12 91.2 112.796 91.668 112.796 92.292C112.796 92.82 113.108 93.312 113.732 93.768C114.356 94.224 115.544 94.692 117.296 95.172C119.336 95.772 120.788 96.456 121.652 97.224C122.54 97.992 122.984 98.976 122.984 100.176C122.984 101.112 122.732 101.976 122.228 102.768C121.724 103.56 120.956 104.196 119.924 104.676C118.916 105.132 117.656 105.36 116.144 105.36ZM132.848 105.396C131.192 105.396 129.812 104.796 128.708 103.596C127.628 102.396 127.1 100.476 127.124 97.836L127.16 88.44H130.184V97.836C130.184 99.732 130.508 101.052 131.156 101.796C131.828 102.54 132.632 102.912 133.568 102.912C134.672 102.912 135.62 102.492 136.412 101.652C137.228 100.812 137.636 99.492 137.636 97.692V88.44H140.696V102.408C140.696 102.864 140.708 103.308 140.732 103.74C140.756 104.148 140.864 104.568 141.056 105H138.14C137.972 104.592 137.864 104.196 137.816 103.812C137.792 103.404 137.78 102.996 137.78 102.588C137.276 103.5 136.58 104.196 135.692 104.676C134.828 105.156 133.88 105.396 132.848 105.396ZM150.236 96.972L148.328 98.772V105H145.196V80.988H148.652V81.276C148.508 81.42 148.412 81.576 148.364 81.744C148.34 81.912 148.328 82.2 148.328 82.608V95.496L155.96 88.368C156.632 88.488 157.328 88.548 158.048 88.548H159.344L152.504 95.064L160.388 105L156.608 105.144L150.236 96.972ZM168.236 96.972L166.328 98.772V105H163.196V80.988H166.652V81.276C166.508 81.42 166.412 81.576 166.364 81.744C166.34 81.912 166.328 82.2 166.328 82.608V95.496L173.96 88.368C174.632 88.488 175.328 88.548 176.048 88.548H177.344L170.504 95.064L178.388 105L174.608 105.144L168.236 96.972ZM186.452 105.396C184.58 105.396 183.14 104.976 182.132 104.136C181.124 103.272 180.62 102.168 180.62 100.824C180.62 99.648 180.98 98.616 181.7 97.728C182.444 96.84 183.464 96.156 184.76 95.676C186.056 95.196 187.556 94.956 189.26 94.956C189.668 94.956 190.124 94.968 190.628 94.992C191.132 94.992 191.66 95.016 192.212 95.064C192.068 93.336 191.6 92.16 190.808 91.536C190.04 90.888 188.96 90.564 187.568 90.564C186.776 90.564 186.008 90.708 185.264 90.996C184.544 91.284 183.86 91.74 183.212 92.364L181.628 90.456C182.468 89.64 183.404 89.04 184.436 88.656C185.492 88.272 186.596 88.08 187.748 88.08C189.188 88.08 190.46 88.32 191.564 88.8C192.668 89.256 193.532 90.06 194.156 91.212C194.78 92.364 195.092 93.948 195.092 95.964V105H191.816V102.732C191.192 103.812 190.376 104.532 189.368 104.892C188.384 105.228 187.412 105.396 186.452 105.396ZM183.68 100.536C183.68 101.496 183.98 102.156 184.58 102.516C185.204 102.852 185.972 103.02 186.884 103.02C188.492 103.02 189.752 102.54 190.664 101.58C191.6 100.62 192.128 99.204 192.248 97.332C191.264 97.236 190.304 97.188 189.368 97.188C187.568 97.188 186.164 97.464 185.156 98.016C184.172 98.568 183.68 99.408 183.68 100.536ZM199.376 105V88.44H202.436V91.176C203.06 90.216 203.828 89.46 204.74 88.908C205.652 88.332 206.66 88.044 207.764 88.044C208.676 88.044 209.516 88.284 210.284 88.764C211.052 89.22 211.652 89.952 212.084 90.96C212.54 91.968 212.768 93.312 212.768 94.992V105H209.744V95.064C209.744 93.456 209.468 92.316 208.916 91.644C208.388 90.948 207.716 90.6 206.9 90.6C206.228 90.6 205.544 90.792 204.848 91.176C204.152 91.56 203.576 92.112 203.12 92.832C202.664 93.552 202.436 94.392 202.436 95.352V105H199.376ZM235.376 105V88.44H238.436V91.176C239.06 90.216 239.828 89.46 240.74 88.908C241.652 88.332 242.66 88.044 243.764 88.044C244.676 88.044 245.516 88.284 246.284 88.764C247.052 89.22 247.652 89.952 248.084 90.96C248.54 91.968 248.768 93.312 248.768 94.992V105H245.744V95.064C245.744 93.456 245.468 92.316 244.916 91.644C244.388 90.948 243.716 90.6 242.9 90.6C242.228 90.6 241.544 90.792 240.848 91.176C240.152 91.56 239.576 92.112 239.12 92.832C238.664 93.552 238.436 94.392 238.436 95.352V105H235.376ZM258.452 105.396C256.58 105.396 255.14 104.976 254.132 104.136C253.124 103.272 252.62 102.168 252.62 100.824C252.62 99.648 252.98 98.616 253.7 97.728C254.444 96.84 255.464 96.156 256.76 95.676C258.056 95.196 259.556 94.956 261.26 94.956C261.668 94.956 262.124 94.968 262.628 94.992C263.132 94.992 263.66 95.016 264.212 95.064C264.068 93.336 263.6 92.16 262.808 91.536C262.04 90.888 260.96 90.564 259.568 90.564C258.776 90.564 258.008 90.708 257.264 90.996C256.544 91.284 255.86 91.74 255.212 92.364L253.628 90.456C254.468 89.64 255.404 89.04 256.436 88.656C257.492 88.272 258.596 88.08 259.748 88.08C261.188 88.08 262.46 88.32 263.564 88.8C264.668 89.256 265.532 90.06 266.156 91.212C266.78 92.364 267.092 93.948 267.092 95.964V105H263.816V102.732C263.192 103.812 262.376 104.532 261.368 104.892C260.384 105.228 259.412 105.396 258.452 105.396ZM255.68 100.536C255.68 101.496 255.98 102.156 256.58 102.516C257.204 102.852 257.972 103.02 258.884 103.02C260.492 103.02 261.752 102.54 262.664 101.58C263.6 100.62 264.128 99.204 264.248 97.332C263.264 97.236 262.304 97.188 261.368 97.188C259.568 97.188 258.164 97.464 257.156 98.016C256.172 98.568 255.68 99.408 255.68 100.536ZM270.26 105V88.44H272.996V89.952C273.38 89.352 273.86 88.884 274.436 88.548C275.012 88.212 275.6 88.044 276.2 88.044C276.872 88.044 277.472 88.248 278 88.656C278.552 89.064 278.912 89.628 279.08 90.348C279.416 89.628 279.908 89.064 280.556 88.656C281.204 88.248 281.936 88.044 282.752 88.044C283.904 88.044 284.744 88.452 285.272 89.268C285.8 90.084 286.04 91.152 285.992 92.472V105H283.22V93.408C283.22 92.496 283.16 91.824 283.04 91.392C282.944 90.936 282.788 90.648 282.572 90.528C282.38 90.384 282.14 90.312 281.852 90.312C281.444 90.312 281.06 90.504 280.7 90.888C280.34 91.248 280.04 91.728 279.8 92.328C279.584 92.904 279.476 93.516 279.476 94.164V105H276.776V93.588C276.776 92.292 276.656 91.428 276.416 90.996C276.2 90.564 275.792 90.348 275.192 90.348C274.688 90.348 274.196 90.672 273.716 91.32C273.26 91.944 273.032 92.844 273.032 94.02V105H270.26ZM294.452 105.396C292.58 105.396 291.14 104.976 290.132 104.136C289.124 103.272 288.62 102.168 288.62 100.824C288.62 99.648 288.98 98.616 289.7 97.728C290.444 96.84 291.464 96.156 292.76 95.676C294.056 95.196 295.556 94.956 297.26 94.956C297.668 94.956 298.124 94.968 298.628 94.992C299.132 94.992 299.66 95.016 300.212 95.064C300.068 93.336 299.6 92.16 298.808 91.536C298.04 90.888 296.96 90.564 295.568 90.564C294.776 90.564 294.008 90.708 293.264 90.996C292.544 91.284 291.86 91.74 291.212 92.364L289.628 90.456C290.468 89.64 291.404 89.04 292.436 88.656C293.492 88.272 294.596 88.08 295.748 88.08C297.188 88.08 298.46 88.32 299.564 88.8C300.668 89.256 301.532 90.06 302.156 91.212C302.78 92.364 303.092 93.948 303.092 95.964V105H299.816V102.732C299.192 103.812 298.376 104.532 297.368 104.892C296.384 105.228 295.412 105.396 294.452 105.396ZM291.68 100.536C291.68 101.496 291.98 102.156 292.58 102.516C293.204 102.852 293.972 103.02 294.884 103.02C296.492 103.02 297.752 102.54 298.664 101.58C299.6 100.62 300.128 99.204 300.248 97.332C299.264 97.236 298.304 97.188 297.368 97.188C295.568 97.188 294.164 97.464 293.156 98.016C292.172 98.568 291.68 99.408 291.68 100.536ZM330.452 105.396C328.58 105.396 327.14 104.976 326.132 104.136C325.124 103.272 324.62 102.168 324.62 100.824C324.62 99.648 324.98 98.616 325.7 97.728C326.444 96.84 327.464 96.156 328.76 95.676C330.056 95.196 331.556 94.956 333.26 94.956C333.668 94.956 334.124 94.968 334.628 94.992C335.132 94.992 335.66 95.016 336.212 95.064C336.068 93.336 335.6 92.16 334.808 91.536C334.04 90.888 332.96 90.564 331.568 90.564C330.776 90.564 330.008 90.708 329.264 90.996C328.544 91.284 327.86 91.74 327.212 92.364L325.628 90.456C326.468 89.64 327.404 89.04 328.436 88.656C329.492 88.272 330.596 88.08 331.748 88.08C333.188 88.08 334.46 88.32 335.564 88.8C336.668 89.256 337.532 90.06 338.156 91.212C338.78 92.364 339.092 93.948 339.092 95.964V105H335.816V102.732C335.192 103.812 334.376 104.532 333.368 104.892C332.384 105.228 331.412 105.396 330.452 105.396ZM327.68 100.536C327.68 101.496 327.98 102.156 328.58 102.516C329.204 102.852 329.972 103.02 330.884 103.02C332.492 103.02 333.752 102.54 334.664 101.58C335.6 100.62 336.128 99.204 336.248 97.332C335.264 97.236 334.304 97.188 333.368 97.188C331.568 97.188 330.164 97.464 329.156 98.016C328.172 98.568 327.68 99.408 327.68 100.536ZM343.376 105V88.44H346.436V91.176C347.06 90.216 347.828 89.46 348.74 88.908C349.652 88.332 350.66 88.044 351.764 88.044C352.676 88.044 353.516 88.284 354.284 88.764C355.052 89.22 355.652 89.952 356.084 90.96C356.54 91.968 356.768 93.312 356.768 94.992V105H353.744V95.064C353.744 93.456 353.468 92.316 352.916 91.644C352.388 90.948 351.716 90.6 350.9 90.6C350.228 90.6 349.544 90.792 348.848 91.176C348.152 91.56 347.576 92.112 347.12 92.832C346.664 93.552 346.436 94.392 346.436 95.352V105H343.376ZM367.316 105.36C366.164 105.36 365.06 105.048 364.004 104.424C362.972 103.776 362.12 102.804 361.448 101.508C360.8 100.188 360.476 98.544 360.476 96.576C360.476 94.608 360.812 93 361.484 91.752C362.156 90.48 363.02 89.544 364.076 88.944C365.132 88.32 366.248 88.008 367.424 88.008C368.456 88.008 369.368 88.236 370.16 88.692C370.952 89.148 371.552 89.772 371.96 90.564V80.988H375.236V81.276C375.092 81.42 374.996 81.576 374.948 81.744C374.924 81.912 374.912 82.2 374.912 82.608L374.948 102.552C374.948 102.96 374.96 103.368 374.984 103.776C375.032 104.184 375.14 104.592 375.308 105H372.284C372.092 104.592 371.984 104.208 371.96 103.848C371.936 103.488 371.924 103.104 371.924 102.696C371.42 103.536 370.772 104.196 369.98 104.676C369.212 105.132 368.324 105.36 367.316 105.36ZM367.82 102.768C369.26 102.768 370.28 102.204 370.88 101.076C371.504 99.924 371.816 98.448 371.816 96.648C371.816 94.8 371.48 93.312 370.808 92.184C370.136 91.056 369.08 90.492 367.64 90.492C366.296 90.492 365.264 91.02 364.544 92.076C363.848 93.132 363.5 94.536 363.5 96.288C363.5 98.256 363.884 99.828 364.652 101.004C365.42 102.18 366.476 102.768 367.82 102.768ZM384.452 105.396C382.58 105.396 381.14 104.976 380.132 104.136C379.124 103.272 378.62 102.168 378.62 100.824C378.62 99.648 378.98 98.616 379.7 97.728C380.444 96.84 381.464 96.156 382.76 95.676C384.056 95.196 385.556 94.956 387.26 94.956C387.668 94.956 388.124 94.968 388.628 94.992C389.132 94.992 389.66 95.016 390.212 95.064C390.068 93.336 389.6 92.16 388.808 91.536C388.04 90.888 386.96 90.564 385.568 90.564C384.776 90.564 384.008 90.708 383.264 90.996C382.544 91.284 381.86 91.74 381.212 92.364L379.628 90.456C380.468 89.64 381.404 89.04 382.436 88.656C383.492 88.272 384.596 88.08 385.748 88.08C387.188 88.08 388.46 88.32 389.564 88.8C390.668 89.256 391.532 90.06 392.156 91.212C392.78 92.364 393.092 93.948 393.092 95.964V105H389.816V102.732C389.192 103.812 388.376 104.532 387.368 104.892C386.384 105.228 385.412 105.396 384.452 105.396ZM381.68 100.536C381.68 101.496 381.98 102.156 382.58 102.516C383.204 102.852 383.972 103.02 384.884 103.02C386.492 103.02 387.752 102.54 388.664 101.58C389.6 100.62 390.128 99.204 390.248 97.332C389.264 97.236 388.304 97.188 387.368 97.188C385.568 97.188 384.164 97.464 383.156 98.016C382.172 98.568 381.68 99.408 381.68 100.536ZM421.532 94.128C420.908 94.128 420.368 93.9 419.912 93.444C419.456 92.988 419.228 92.46 419.228 91.86C419.228 91.236 419.456 90.696 419.912 90.24C420.368 89.784 420.908 89.556 421.532 89.556C422.132 89.556 422.672 89.784 423.152 90.24C423.632 90.672 423.872 91.212 423.872 91.86C423.872 92.46 423.644 92.988 423.188 93.444C422.732 93.9 422.18 94.128 421.532 94.128ZM421.532 105.396C420.884 105.396 420.332 105.18 419.876 104.748C419.444 104.292 419.228 103.752 419.228 103.128C419.228 102.504 419.456 101.964 419.912 101.508C420.368 101.052 420.908 100.824 421.532 100.824C422.132 100.824 422.672 101.052 423.152 101.508C423.632 101.964 423.872 102.504 423.872 103.128C423.872 103.752 423.644 104.292 423.188 104.748C422.732 105.18 422.18 105.396 421.532 105.396ZM452.42 105V102.552H456.596V90.924H452.636V88.44H459.692V102.552H463.508V105H452.42ZM457.964 85.236C457.388 85.236 456.896 85.032 456.488 84.624C456.08 84.216 455.876 83.736 455.876 83.184C455.876 82.608 456.068 82.128 456.452 81.744C456.86 81.336 457.364 81.132 457.964 81.132C458.516 81.132 458.996 81.336 459.404 81.744C459.836 82.152 460.052 82.632 460.052 83.184C460.052 83.736 459.836 84.216 459.404 84.624C458.996 85.032 458.516 85.236 457.964 85.236ZM476.72 105.396C475.76 105.396 474.86 105.18 474.02 104.748C473.204 104.316 472.52 103.716 471.968 102.948L471.14 105H469.016V80.988H472.472V81.276C472.328 81.42 472.232 81.576 472.184 81.744C472.16 81.912 472.148 82.2 472.148 82.608V90.744C472.652 89.928 473.336 89.28 474.2 88.8C475.064 88.296 475.952 88.044 476.864 88.044C478.88 88.044 480.512 88.752 481.76 90.168C483.008 91.584 483.632 93.708 483.632 96.54C483.632 98.532 483.296 100.188 482.624 101.508C481.976 102.804 481.124 103.776 480.068 104.424C479.012 105.072 477.896 105.396 476.72 105.396ZM476.252 102.804C476.972 102.804 477.656 102.612 478.304 102.228C478.952 101.844 479.48 101.208 479.888 100.32C480.296 99.432 480.5 98.244 480.5 96.756C480.5 94.692 480.116 93.144 479.348 92.112C478.58 91.08 477.572 90.564 476.324 90.564C475.076 90.564 474.068 91.128 473.3 92.256C472.532 93.384 472.148 94.872 472.148 96.72C472.148 98.592 472.46 100.08 473.084 101.184C473.732 102.264 474.788 102.804 476.252 102.804ZM487.376 105V88.44H490.436V91.176C491.06 90.216 491.828 89.46 492.74 88.908C493.652 88.332 494.66 88.044 495.764 88.044C496.676 88.044 497.516 88.284 498.284 88.764C499.052 89.22 499.652 89.952 500.084 90.96C500.54 91.968 500.768 93.312 500.768 94.992V105H497.744V95.064C497.744 93.456 497.468 92.316 496.916 91.644C496.388 90.948 495.716 90.6 494.9 90.6C494.228 90.6 493.544 90.792 492.848 91.176C492.152 91.56 491.576 92.112 491.12 92.832C490.664 93.552 490.436 94.392 490.436 95.352V105H487.376ZM510.848 105.396C509.192 105.396 507.812 104.796 506.708 103.596C505.628 102.396 505.1 100.476 505.124 97.836L505.16 88.44H508.184V97.836C508.184 99.732 508.508 101.052 509.156 101.796C509.828 102.54 510.632 102.912 511.568 102.912C512.672 102.912 513.62 102.492 514.412 101.652C515.228 100.812 515.636 99.492 515.636 97.692V88.44H518.696V102.408C518.696 102.864 518.708 103.308 518.732 103.74C518.756 104.148 518.864 104.568 519.056 105H516.14C515.972 104.592 515.864 104.196 515.816 103.812C515.792 103.404 515.78 102.996 515.78 102.588C515.276 103.5 514.58 104.196 513.692 104.676C512.828 105.156 511.88 105.396 510.848 105.396Z" fill="white"/>
</svg>
